<svg xmlns="http://www.w3.org/2000/svg" width="375" viewBox="0 0 375 375" height="375" version="1.0"><defs><clipPath id="a"><path d="M 92.585938 7 L 286.085938 7 L 286.085938 375 L 92.585938 375 Z M 92.585938 7"/></clipPath></defs><g clip-path="url(#a)"><path fill="#FFF" d="M 282.410156 354.917969 C 264.917969 349.152344 260.039062 327.132812 274.4375 311.496094 L 270.761719 291.605469 L 253.269531 291.605469 L 253.269531 279.300781 C 220.449219 236.925781 215.265625 169.242188 217.933594 137.164062 C 218.398438 131.433594 223.199219 127.023438 228.925781 127.023438 L 236.472656 127.023438 C 236.472656 122.804688 239.878906 119.398438 244.097656 119.398438 L 244.097656 104.269531 C 239.878906 104.269531 236.472656 100.863281 236.472656 96.644531 L 219.328125 96.644531 C 221.417969 91.652344 227.339844 84.84375 227.339844 79.039062 C 227.339844 59.183594 212.4375 25.054688 193.320312 20.796875 C 195.566406 18.628906 197.074219 14.914062 197.074219 12.128906 C 197.074219 7.832031 193.632812 7.175781 189.335938 7.175781 C 185.078125 7.175781 181.632812 7.832031 181.632812 12.089844 C 181.632812 14.914062 183.144531 18.589844 185.386719 20.757812 C 166.269531 25.015625 151.371094 59.148438 151.371094 79 C 151.371094 84.804688 157.292969 91.613281 159.382812 96.605469 L 142.238281 96.605469 C 142.238281 100.824219 138.832031 104.230469 134.613281 104.230469 L 134.613281 119.359375 C 138.832031 119.359375 142.238281 122.765625 142.238281 126.984375 L 149.785156 126.984375 C 155.550781 126.984375 160.308594 131.394531 160.773438 137.125 C 163.445312 169.164062 158.257812 236.886719 125.441406 279.261719 L 125.441406 291.570312 L 107.910156 291.570312 L 104.234375 311.460938 C 118.628906 327.09375 113.753906 349.113281 96.261719 354.878906 L 92.585938 374.808594 L 286.085938 374.808594 Z M 268.554688 311.5 C 264.722656 316.605469 262.363281 322.371094 261.664062 328.5625 C 261.78125 328.601562 261.820312 328.601562 261.820312 328.601562 C 261.820312 328.601562 261.664062 328.601562 261.664062 328.601562 C 261.472656 328.601562 261.203125 328.601562 261.164062 328.601562 C 260.660156 328.601562 237.246094 328.640625 237.246094 328.640625 C 237.050781 328.175781 252.417969 326.667969 256.363281 327.75 C 256.285156 326.550781 256.171875 325.390625 256.015625 324.191406 C 259.226562 323.84375 261.433594 323.339844 261.664062 323.261719 L 255.898438 323.261719 C 255.898438 323.261719 237.402344 323.300781 237.402344 323.300781 C 237.089844 322.914062 251.71875 321.328125 255.746094 322.332031 C 255.550781 321.25 255.359375 320.167969 255.125 319.082031 C 256.945312 319.003906 261.78125 318.152344 262.324219 317.921875 C 253.886719 318.191406 245.410156 317.882812 236.976562 318 C 241.96875 316.839844 248.855469 316.453125 254.621094 316.953125 C 254.351562 315.910156 254.042969 314.902344 253.730469 313.859375 C 256.671875 313.78125 262.285156 312.96875 263.871094 312.582031 C 260.351562 312.660156 256.828125 312.660156 253.34375 312.699219 C 247.617188 312.699219 241.890625 312.660156 236.125 312.660156 C 236.125 312.660156 236.085938 312.660156 236.085938 312.660156 C 244.132812 310.839844 259.574219 311.652344 268.554688 311.5 Z M 236.976562 110.539062 C 218.515625 111.503906 198.738281 110.652344 180.203125 110.539062 L 180.203125 110.421875 C 198.738281 110.304688 218.476562 109.453125 236.976562 110.421875 Z M 236.976562 113.59375 L 236.976562 113.710938 C 218.167969 114.679688 198.082031 113.828125 179.273438 113.710938 L 179.273438 113.59375 C 198.121094 113.480469 218.207031 112.589844 236.976562 113.59375 Z M 215.417969 82.210938 C 215.226562 82.289062 215.03125 82.367188 214.839844 82.441406 C 214.492188 82.558594 214.140625 82.636719 213.832031 82.675781 C 213.484375 82.714844 213.136719 82.714844 212.828125 82.675781 C 212.476562 82.636719 212.128906 82.558594 211.820312 82.519531 C 211.355469 82.480469 210.929688 82.441406 210.464844 82.367188 C 209.382812 82.367188 208.296875 82.40625 207.214844 82.40625 C 205.125 82.40625 203.035156 82.367188 200.945312 82.289062 C 198.855469 82.210938 196.765625 82.09375 194.675781 81.902344 C 196.765625 81.707031 198.855469 81.589844 200.945312 81.515625 C 203.035156 81.4375 205.125 81.398438 207.214844 81.398438 C 208.296875 81.398438 209.34375 81.398438 210.386719 81.4375 C 210.851562 81.359375 211.316406 81.320312 211.78125 81.28125 C 212.128906 81.242188 212.476562 81.167969 212.789062 81.128906 C 213.136719 81.089844 213.484375 81.089844 213.792969 81.128906 C 214.140625 81.167969 214.492188 81.242188 214.800781 81.359375 C 215.03125 81.4375 215.226562 81.515625 215.457031 81.628906 C 216.890625 81.707031 218.28125 81.785156 219.714844 81.941406 C 218.28125 82.054688 216.851562 82.132812 215.417969 82.210938 Z M 212.246094 87.398438 C 211.9375 87.433594 211.664062 87.433594 211.355469 87.398438 C 211.046875 87.359375 210.773438 87.28125 210.464844 87.242188 C 210 87.203125 209.574219 87.125 209.109375 87.046875 C 207.640625 87.085938 206.132812 87.085938 204.660156 87.085938 C 202.6875 87.085938 200.75 87.046875 198.777344 86.972656 C 196.804688 86.894531 194.871094 86.777344 192.894531 86.582031 C 194.871094 86.390625 196.804688 86.273438 198.777344 86.195312 C 200.75 86.121094 202.6875 86.082031 204.660156 86.082031 C 206.09375 86.082031 207.5625 86.121094 208.996094 86.15625 C 209.460938 86.082031 209.960938 86.003906 210.425781 85.964844 C 210.738281 85.925781 211.007812 85.847656 211.316406 85.808594 C 211.625 85.769531 211.898438 85.769531 212.207031 85.808594 C 212.515625 85.847656 212.789062 85.925781 213.097656 86.042969 C 213.328125 86.121094 213.5625 86.234375 213.792969 86.390625 C 214.683594 86.46875 215.574219 86.546875 216.425781 86.621094 C 215.535156 86.699219 214.605469 86.777344 213.714844 86.855469 C 213.523438 86.972656 213.289062 87.085938 213.097656 87.164062 C 212.828125 87.28125 212.554688 87.359375 212.246094 87.398438 Z M 213.136719 91.265625 C 212.050781 91.382812 210.96875 91.460938 209.886719 91.539062 C 209.769531 91.652344 209.652344 91.769531 209.535156 91.847656 C 209.382812 91.960938 209.226562 92.039062 209.035156 92.078125 C 208.878906 92.117188 208.722656 92.117188 208.53125 92.078125 C 208.375 92.039062 208.222656 91.960938 208.027344 91.925781 C 207.71875 91.847656 207.371094 91.769531 207.058594 91.691406 C 205.28125 91.769531 203.5 91.808594 201.71875 91.808594 C 199.824219 91.808594 197.925781 91.769531 196.03125 91.691406 C 194.132812 91.613281 192.238281 91.5 190.339844 91.304688 C 192.238281 91.074219 194.132812 90.996094 196.03125 90.878906 C 197.925781 90.800781 199.824219 90.761719 201.71875 90.761719 C 203.539062 90.761719 205.320312 90.800781 207.136719 90.839844 C 207.445312 90.761719 207.71875 90.6875 208.027344 90.648438 C 208.183594 90.609375 208.335938 90.53125 208.53125 90.492188 C 208.683594 90.453125 208.839844 90.453125 209.035156 90.492188 C 209.1875 90.53125 209.34375 90.609375 209.535156 90.722656 C 209.652344 90.800781 209.730469 90.878906 209.847656 90.996094 C 210.929688 91.074219 212.011719 91.148438 213.136719 91.265625 Z M 216.191406 77.527344 C 216 77.605469 215.765625 77.683594 215.574219 77.761719 C 215.1875 77.875 214.800781 77.953125 214.414062 77.992188 C 214.027344 78.03125 213.640625 78.03125 213.253906 77.992188 C 212.863281 77.953125 212.476562 77.875 212.089844 77.839844 C 211.703125 77.800781 211.316406 77.761719 210.929688 77.722656 L 210.660156 77.683594 C 209.960938 77.683594 209.226562 77.683594 208.53125 77.683594 C 206.441406 77.683594 204.351562 77.644531 202.261719 77.566406 C 200.171875 77.488281 198.082031 77.375 195.992188 77.179688 C 198.082031 76.988281 200.171875 76.871094 202.261719 76.792969 C 204.351562 76.714844 206.441406 76.675781 208.53125 76.675781 C 209.226562 76.675781 209.921875 76.675781 210.621094 76.675781 L 210.890625 76.636719 C 211.277344 76.601562 211.664062 76.5625 212.050781 76.523438 C 212.4375 76.484375 212.828125 76.40625 213.214844 76.367188 C 213.601562 76.328125 213.988281 76.328125 214.375 76.367188 C 214.761719 76.40625 215.148438 76.484375 215.535156 76.601562 C 215.765625 76.675781 215.960938 76.753906 216.191406 76.832031 C 217.78125 76.910156 219.367188 77.023438 220.953125 77.179688 C 219.367188 77.335938 217.78125 77.449219 216.191406 77.527344 Z M 216.695312 72.808594 C 216.464844 72.882812 216.269531 72.960938 216.039062 73 C 215.613281 73.117188 215.1875 73.195312 214.761719 73.234375 C 214.335938 73.273438 213.910156 73.273438 213.484375 73.234375 C 213.058594 73.195312 212.632812 73.117188 212.207031 73.078125 L 210.929688 72.960938 L 210.699219 72.921875 C 210.234375 72.921875 209.769531 72.921875 209.34375 72.921875 C 207.214844 72.921875 205.085938 72.882812 202.996094 72.808594 C 200.867188 72.730469 198.738281 72.613281 196.648438 72.421875 C 198.777344 72.226562 200.90625 72.109375 202.996094 72.035156 C 205.125 71.957031 207.253906 71.917969 209.34375 71.917969 C 209.808594 71.917969 210.273438 71.917969 210.699219 71.917969 L 210.929688 71.878906 L 212.207031 71.761719 C 212.632812 71.722656 213.058594 71.644531 213.484375 71.609375 C 213.910156 71.570312 214.335938 71.570312 214.761719 71.609375 C 215.1875 71.644531 215.613281 71.722656 216.039062 71.839844 C 216.269531 71.878906 216.464844 71.957031 216.695312 72.035156 C 218.476562 72.109375 220.21875 72.226562 222 72.382812 C 220.21875 72.613281 218.476562 72.730469 216.695312 72.808594 Z M 216.695312 68.085938 C 216.464844 68.164062 216.230469 68.242188 216 68.28125 C 215.574219 68.394531 215.109375 68.472656 214.683594 68.511719 C 214.257812 68.550781 213.792969 68.550781 213.367188 68.511719 C 212.941406 68.472656 212.476562 68.394531 212.050781 68.355469 L 210.738281 68.242188 L 210.503906 68.203125 C 210.039062 68.203125 209.574219 68.203125 209.148438 68.203125 C 207.019531 68.203125 204.855469 68.164062 202.726562 68.085938 C 200.597656 68.007812 198.429688 67.890625 196.300781 67.699219 C 198.429688 67.503906 200.597656 67.390625 202.726562 67.3125 C 204.855469 67.234375 207.019531 67.195312 209.148438 67.195312 C 209.613281 67.195312 210.078125 67.195312 210.542969 67.195312 L 210.773438 67.15625 L 212.089844 67.042969 C 212.515625 67.003906 212.980469 66.925781 213.40625 66.886719 C 213.832031 66.847656 214.296875 66.847656 214.722656 66.886719 C 215.148438 66.925781 215.613281 67.003906 216.039062 67.117188 C 216.269531 67.15625 216.464844 67.234375 216.695312 67.3125 C 218.476562 67.390625 220.257812 67.503906 222.035156 67.660156 C 220.21875 67.890625 218.476562 68.007812 216.695312 68.085938 Z M 216.503906 63.328125 C 216.191406 63.441406 215.921875 63.519531 215.613281 63.597656 C 215.148438 63.714844 214.683594 63.789062 214.21875 63.828125 C 213.753906 63.867188 213.289062 63.867188 212.828125 63.828125 C 212.363281 63.789062 211.898438 63.714844 211.433594 63.675781 L 210.039062 63.558594 L 209.769531 63.519531 C 209.34375 63.519531 208.878906 63.519531 208.453125 63.519531 C 206.402344 63.519531 204.390625 63.480469 202.339844 63.402344 C 200.289062 63.328125 198.273438 63.210938 196.222656 63.015625 C 198.273438 62.824219 200.289062 62.707031 202.339844 62.628906 C 204.390625 62.550781 206.402344 62.511719 208.453125 62.511719 C 208.878906 62.511719 209.34375 62.511719 209.769531 62.511719 L 210 62.476562 L 211.394531 62.359375 C 211.859375 62.320312 212.324219 62.242188 212.789062 62.203125 C 213.253906 62.164062 213.714844 62.164062 214.179688 62.203125 C 214.644531 62.242188 215.109375 62.320312 215.574219 62.4375 C 215.84375 62.511719 216.117188 62.589844 216.347656 62.667969 C 217.78125 62.746094 219.171875 62.824219 220.605469 62.976562 C 219.289062 63.132812 217.894531 63.25 216.503906 63.328125 Z M 216.117188 58.527344 C 215.730469 58.683594 215.34375 58.796875 214.953125 58.875 C 214.453125 58.992188 213.949219 59.070312 213.484375 59.109375 C 212.980469 59.148438 212.515625 59.148438 212.011719 59.109375 C 211.511719 59.070312 211.046875 58.992188 210.542969 58.953125 L 209.074219 58.835938 L 208.800781 58.796875 C 208.453125 58.796875 208.066406 58.796875 207.71875 58.796875 C 205.859375 58.796875 204.042969 58.761719 202.183594 58.683594 C 200.328125 58.605469 198.507812 58.488281 196.648438 58.296875 C 198.507812 58.101562 200.328125 57.984375 202.183594 57.910156 C 204.042969 57.832031 205.859375 57.792969 207.71875 57.792969 C 208.105469 57.792969 208.492188 57.792969 208.878906 57.792969 L 209.109375 57.792969 L 210.582031 57.675781 C 211.085938 57.636719 211.589844 57.558594 212.050781 57.519531 C 212.554688 57.484375 213.058594 57.484375 213.523438 57.519531 C 214.027344 57.558594 214.492188 57.636719 214.992188 57.753906 C 215.34375 57.832031 215.652344 57.910156 216 58.023438 C 216.929688 58.101562 217.855469 58.179688 218.746094 58.257812 C 217.855469 58.371094 216.96875 58.449219 216.117188 58.527344 Z M 215.1875 53.535156 C 215.496094 53.574219 215.804688 53.613281 216.117188 53.652344 C 215.730469 53.691406 215.378906 53.730469 214.992188 53.769531 C 214.566406 53.960938 214.140625 54.078125 213.714844 54.15625 C 213.214844 54.269531 212.710938 54.347656 212.246094 54.386719 C 211.742188 54.425781 211.238281 54.425781 210.773438 54.386719 C 210.273438 54.347656 209.769531 54.269531 209.304688 54.230469 L 207.835938 54.117188 L 207.640625 54.117188 C 207.292969 54.117188 206.945312 54.117188 206.558594 54.117188 C 204.96875 54.117188 203.34375 54.078125 201.757812 54 C 200.171875 53.921875 198.546875 53.804688 196.960938 53.613281 C 198.546875 53.417969 200.171875 53.304688 201.757812 53.226562 C 203.34375 53.148438 204.96875 53.109375 206.558594 53.109375 C 206.867188 53.109375 207.175781 53.109375 207.523438 53.109375 L 207.835938 53.070312 L 209.304688 52.953125 C 209.808594 52.917969 210.3125 52.839844 210.773438 52.800781 C 211.277344 52.761719 211.78125 52.761719 212.246094 52.800781 C 212.75 52.839844 213.253906 52.917969 213.714844 53.03125 C 214.21875 53.148438 214.683594 53.304688 215.1875 53.535156 Z M 213.058594 48.8125 L 213.058594 48.890625 C 213.097656 48.890625 213.097656 48.890625 213.136719 48.890625 C 213.097656 48.890625 213.097656 48.890625 213.058594 48.890625 L 213.058594 48.929688 C 212.59375 49.164062 212.089844 49.277344 211.625 49.394531 C 211.164062 49.511719 210.660156 49.589844 210.195312 49.628906 C 209.730469 49.664062 209.226562 49.664062 208.761719 49.628906 C 208.296875 49.589844 207.796875 49.511719 207.332031 49.472656 L 205.898438 49.355469 L 205.707031 49.355469 C 205.433594 49.355469 205.203125 49.355469 204.929688 49.355469 C 203.539062 49.355469 202.183594 49.316406 200.789062 49.238281 C 199.398438 49.164062 198.042969 49.046875 196.648438 48.851562 C 198.042969 48.660156 199.398438 48.542969 200.789062 48.464844 C 202.183594 48.386719 203.539062 48.351562 204.929688 48.351562 C 205.164062 48.351562 205.394531 48.351562 205.628906 48.351562 L 205.898438 48.3125 L 207.332031 48.195312 C 207.796875 48.15625 208.296875 48.078125 208.761719 48.039062 C 209.226562 48 209.730469 48 210.195312 48.039062 C 210.660156 48.078125 211.164062 48.15625 211.625 48.273438 C 212.089844 48.425781 212.554688 48.582031 213.058594 48.8125 Z M 206.828125 43.785156 C 207.949219 43.859375 209.109375 43.976562 210.234375 44.171875 C 209.109375 44.363281 207.949219 44.480469 206.828125 44.558594 C 205.859375 44.636719 204.929688 44.636719 203.964844 44.671875 C 203.925781 44.671875 203.886719 44.710938 203.886719 44.710938 C 203.691406 44.828125 203.5 44.90625 203.304688 44.945312 C 203.113281 44.984375 202.917969 44.984375 202.726562 44.945312 C 202.53125 44.90625 202.339844 44.828125 202.144531 44.789062 C 201.835938 44.75 201.566406 44.671875 201.253906 44.636719 C 200.867188 44.636719 200.441406 44.597656 200.054688 44.558594 C 198.933594 44.480469 197.773438 44.363281 196.648438 44.171875 C 197.773438 43.976562 198.933594 43.859375 200.054688 43.785156 C 200.441406 43.746094 200.867188 43.746094 201.253906 43.707031 C 201.566406 43.628906 201.835938 43.589844 202.144531 43.550781 C 202.339844 43.511719 202.53125 43.433594 202.726562 43.398438 C 202.917969 43.359375 203.113281 43.359375 203.304688 43.398438 C 203.5 43.433594 203.691406 43.511719 203.886719 43.628906 C 203.925781 43.628906 203.964844 43.667969 203.964844 43.667969 C 204.929688 43.667969 205.898438 43.707031 206.828125 43.785156 Z M 206.632812 39.449219 C 205.746094 39.644531 204.855469 39.757812 203.964844 39.835938 C 203.074219 39.914062 202.183594 39.953125 201.292969 39.953125 C 201.101562 39.953125 200.945312 39.953125 200.75 39.953125 C 200.714844 39.953125 200.714844 39.992188 200.675781 39.992188 C 200.519531 40.105469 200.363281 40.183594 200.171875 40.222656 C 200.015625 40.261719 199.863281 40.261719 199.667969 40.222656 C 199.511719 40.183594 199.359375 40.105469 199.164062 40.070312 C 198.855469 39.992188 198.507812 39.914062 198.199219 39.835938 C 198.121094 39.835938 198.082031 39.796875 198.003906 39.796875 C 197.308594 39.71875 196.609375 39.605469 195.914062 39.449219 C 196.609375 39.292969 197.308594 39.179688 198.003906 39.101562 C 198.082031 39.101562 198.121094 39.0625 198.199219 39.0625 C 198.507812 38.984375 198.855469 38.90625 199.164062 38.832031 C 199.320312 38.792969 199.476562 38.714844 199.667969 38.675781 C 199.824219 38.636719 199.976562 38.636719 200.171875 38.675781 C 200.328125 38.714844 200.480469 38.792969 200.675781 38.90625 C 200.714844 38.90625 200.714844 38.945312 200.75 38.945312 C 200.945312 38.945312 201.101562 38.945312 201.292969 38.945312 C 202.183594 38.945312 203.074219 38.984375 203.964844 39.0625 C 204.855469 39.140625 205.746094 39.257812 206.632812 39.449219 Z M 202.726562 34.726562 C 202.105469 34.960938 201.488281 35.039062 200.867188 35.113281 C 200.25 35.191406 199.628906 35.230469 199.011719 35.230469 C 198.855469 35.230469 198.738281 35.230469 198.585938 35.230469 C 198.546875 35.269531 198.546875 35.269531 198.507812 35.269531 C 198.3125 35.386719 198.160156 35.464844 197.964844 35.503906 C 197.773438 35.539062 197.617188 35.539062 197.421875 35.503906 C 197.230469 35.464844 197.074219 35.386719 196.882812 35.347656 C 196.535156 35.269531 196.183594 35.191406 195.835938 35.113281 C 195.488281 35 195.140625 34.921875 194.792969 34.804688 L 194.792969 34.652344 C 195.140625 34.535156 195.488281 34.417969 195.835938 34.339844 C 196.183594 34.265625 196.535156 34.1875 196.882812 34.109375 C 197.074219 34.070312 197.230469 33.992188 197.421875 33.953125 C 197.617188 33.914062 197.773438 33.914062 197.964844 33.953125 C 198.160156 33.992188 198.3125 34.070312 198.507812 34.1875 C 198.546875 34.1875 198.546875 34.226562 198.585938 34.226562 C 198.738281 34.226562 198.855469 34.226562 199.011719 34.226562 C 199.628906 34.226562 200.25 34.265625 200.867188 34.339844 C 201.488281 34.417969 202.105469 34.535156 202.726562 34.726562 Z M 197.925781 29.621094 C 198.351562 29.699219 198.738281 29.8125 199.164062 30.007812 C 198.738281 30.238281 198.351562 30.316406 197.925781 30.394531 C 197.5 30.472656 197.113281 30.511719 196.6875 30.511719 C 196.300781 30.511719 195.953125 30.472656 195.566406 30.433594 C 195.488281 30.472656 195.410156 30.546875 195.332031 30.585938 C 195.140625 30.703125 194.945312 30.78125 194.714844 30.820312 C 194.519531 30.859375 194.328125 30.859375 194.09375 30.820312 C 193.902344 30.78125 193.707031 30.703125 193.476562 30.664062 C 193.089844 30.585938 192.664062 30.511719 192.277344 30.433594 C 191.890625 30.316406 191.464844 30.238281 191.078125 30.125 L 191.078125 29.96875 C 191.464844 29.851562 191.890625 29.734375 192.277344 29.660156 C 192.664062 29.582031 193.089844 29.503906 193.476562 29.425781 C 193.667969 29.386719 193.863281 29.308594 194.09375 29.273438 C 194.289062 29.234375 194.484375 29.234375 194.714844 29.273438 C 194.910156 29.308594 195.101562 29.386719 195.332031 29.503906 C 195.410156 29.542969 195.488281 29.582031 195.566406 29.660156 C 195.953125 29.582031 196.300781 29.582031 196.6875 29.582031 C 197.113281 29.503906 197.5 29.542969 197.925781 29.621094 Z M 193.4375 24.898438 C 193.707031 24.820312 193.980469 24.78125 194.25 24.78125 C 194.519531 24.78125 194.792969 24.820312 195.0625 24.898438 C 195.332031 24.976562 195.605469 25.09375 195.875 25.285156 C 195.605469 25.519531 195.332031 25.59375 195.0625 25.671875 C 194.792969 25.75 194.519531 25.789062 194.25 25.789062 C 193.980469 25.789062 193.707031 25.75 193.4375 25.671875 C 193.167969 25.59375 192.894531 25.480469 192.625 25.285156 C 192.894531 25.09375 193.167969 24.976562 193.4375 24.898438 Z M 192.082031 9.457031 C 193.28125 9.457031 194.328125 10.308594 194.558594 11.46875 C 194.984375 13.367188 194.871094 16.386719 191.695312 19.828125 C 191.695312 19.828125 195.835938 11.859375 189.914062 9.304688 Z M 177.339844 101.714844 C 185.738281 101.445312 195.449219 101.210938 203.886719 101.09375 C 212.476562 100.824219 221.070312 100.746094 229.582031 101.636719 C 231.246094 101.675781 232.949219 101.753906 234.613281 101.792969 C 232.949219 101.871094 231.324219 101.910156 229.660156 101.945312 C 221.070312 102.835938 212.476562 102.796875 203.847656 102.488281 C 195.410156 102.335938 185.699219 102.101562 177.300781 101.871094 Z M 176.488281 29.621094 C 176.5625 29.542969 176.679688 29.503906 176.757812 29.503906 C 176.835938 29.503906 176.953125 29.542969 177.027344 29.621094 C 177.105469 29.699219 177.222656 29.8125 177.300781 30.007812 C 177.222656 30.199219 177.105469 30.316406 177.027344 30.394531 C 176.953125 30.472656 176.835938 30.511719 176.757812 30.511719 C 176.679688 30.511719 176.5625 30.472656 176.488281 30.394531 C 176.410156 30.316406 176.292969 30.199219 176.214844 30.007812 C 176.332031 29.8125 176.410156 29.699219 176.488281 29.621094 Z M 173.351562 34.339844 C 173.46875 34.265625 173.625 34.226562 173.738281 34.226562 C 173.855469 34.226562 174.011719 34.265625 174.125 34.339844 C 174.242188 34.417969 174.398438 34.535156 174.511719 34.726562 C 174.398438 34.921875 174.242188 35.039062 174.125 35.113281 C 174.011719 35.191406 173.855469 35.230469 173.738281 35.230469 C 173.625 35.230469 173.46875 35.191406 173.351562 35.113281 C 173.234375 35.039062 173.082031 34.921875 172.964844 34.726562 C 173.121094 34.535156 173.234375 34.417969 173.351562 34.339844 Z M 170.101562 39.0625 C 170.371094 38.984375 170.644531 38.945312 170.914062 38.945312 C 171.183594 38.945312 171.457031 38.984375 171.726562 39.0625 C 171.996094 39.140625 172.269531 39.257812 172.539062 39.449219 C 172.269531 39.679688 171.996094 39.757812 171.726562 39.835938 C 171.457031 39.914062 171.183594 39.953125 170.914062 39.953125 C 170.644531 39.953125 170.371094 39.914062 170.101562 39.835938 C 169.832031 39.757812 169.558594 39.644531 169.289062 39.449219 C 169.597656 39.257812 169.832031 39.140625 170.101562 39.0625 Z M 167.78125 43.785156 C 168.089844 43.707031 168.359375 43.667969 168.667969 43.667969 C 168.980469 43.667969 169.25 43.707031 169.558594 43.785156 C 169.871094 43.859375 170.140625 43.976562 170.449219 44.171875 C 170.140625 44.402344 169.871094 44.480469 169.558594 44.558594 C 169.25 44.636719 168.980469 44.671875 168.667969 44.671875 C 168.359375 44.671875 168.089844 44.636719 167.78125 44.558594 C 167.46875 44.480469 167.199219 44.363281 166.890625 44.171875 C 167.160156 43.976562 167.46875 43.859375 167.78125 43.785156 Z M 163.367188 86.234375 C 163.871094 86.15625 164.414062 86.121094 164.914062 86.121094 C 165.417969 86.121094 165.960938 86.15625 166.464844 86.234375 C 166.96875 86.3125 167.507812 86.429688 168.011719 86.621094 C 167.507812 86.855469 166.96875 86.933594 166.464844 87.007812 C 165.960938 87.085938 165.417969 87.125 164.914062 87.125 C 164.414062 87.125 163.871094 87.085938 163.367188 87.007812 C 162.863281 86.933594 162.324219 86.816406 161.820312 86.621094 C 162.363281 86.390625 162.863281 86.3125 163.367188 86.234375 Z M 161.316406 82.289062 C 160.699219 82.210938 160.078125 82.09375 159.460938 81.902344 C 160.078125 81.667969 160.699219 81.589844 161.316406 81.515625 C 161.9375 81.4375 162.554688 81.398438 163.175781 81.398438 C 163.792969 81.398438 164.414062 81.4375 165.03125 81.515625 C 165.652344 81.589844 166.269531 81.707031 166.890625 81.902344 C 166.269531 82.132812 165.652344 82.210938 165.03125 82.289062 C 164.414062 82.367188 163.792969 82.40625 163.175781 82.40625 C 162.515625 82.40625 161.9375 82.367188 161.316406 82.289062 Z M 167.121094 90.878906 C 167.390625 90.800781 167.703125 90.761719 167.972656 90.761719 C 168.242188 90.761719 168.554688 90.800781 168.824219 90.878906 C 169.09375 90.957031 169.40625 91.074219 169.675781 91.265625 C 169.40625 91.460938 169.09375 91.574219 168.824219 91.652344 C 168.554688 91.730469 168.242188 91.769531 167.972656 91.769531 C 167.703125 91.769531 167.390625 91.730469 167.121094 91.652344 C 166.851562 91.574219 166.542969 91.460938 166.269531 91.265625 C 166.578125 91.074219 166.851562 90.957031 167.121094 90.878906 Z M 165.726562 48.503906 C 166.078125 48.425781 166.425781 48.386719 166.773438 48.386719 C 167.121094 48.386719 167.46875 48.425781 167.816406 48.503906 C 168.167969 48.582031 168.515625 48.699219 168.863281 48.890625 C 168.515625 49.125 168.167969 49.203125 167.816406 49.277344 C 167.46875 49.355469 167.121094 49.394531 166.773438 49.394531 C 166.425781 49.394531 166.078125 49.355469 165.726562 49.277344 C 165.378906 49.203125 165.03125 49.085938 164.683594 48.890625 C 165.070312 48.699219 165.417969 48.582031 165.726562 48.503906 Z M 163.714844 53.226562 C 164.140625 53.148438 164.527344 53.109375 164.953125 53.109375 C 165.378906 53.109375 165.765625 53.148438 166.191406 53.226562 C 166.617188 53.304688 167.003906 53.417969 167.429688 53.613281 C 167.003906 53.84375 166.617188 53.921875 166.191406 54 C 165.765625 54.078125 165.378906 54.117188 164.953125 54.117188 C 164.527344 54.117188 164.140625 54.078125 163.714844 54 C 163.289062 53.921875 162.902344 53.804688 162.476562 53.613281 C 162.902344 53.417969 163.328125 53.304688 163.714844 53.226562 Z M 162.363281 57.871094 C 162.824219 57.792969 163.25 57.753906 163.714844 57.753906 C 164.179688 57.753906 164.605469 57.792969 165.070312 57.871094 C 165.535156 57.945312 165.960938 58.0625 166.425781 58.296875 C 165.960938 58.488281 165.535156 58.605469 165.070312 58.683594 C 164.605469 58.761719 164.179688 58.796875 163.714844 58.796875 C 163.25 58.796875 162.824219 58.761719 162.363281 58.683594 C 161.898438 58.605469 161.472656 58.488281 161.007812 58.296875 C 161.472656 58.0625 161.9375 57.945312 162.363281 57.871094 Z M 161.625 62.589844 C 162.089844 62.511719 162.554688 62.476562 163.019531 62.476562 C 163.484375 62.476562 163.949219 62.511719 164.414062 62.589844 C 164.878906 62.667969 165.339844 62.785156 165.804688 62.976562 C 165.339844 63.171875 164.878906 63.289062 164.414062 63.363281 C 163.949219 63.441406 163.484375 63.480469 163.019531 63.480469 C 162.554688 63.480469 162.089844 63.441406 161.625 63.363281 C 161.160156 63.289062 160.699219 63.171875 160.234375 62.976562 C 160.699219 62.785156 161.160156 62.667969 161.625 62.589844 Z M 161.007812 67.3125 C 161.511719 67.234375 162.050781 67.195312 162.554688 67.195312 C 163.058594 67.195312 163.601562 67.234375 164.101562 67.3125 C 164.605469 67.390625 165.148438 67.503906 165.652344 67.699219 C 165.148438 67.890625 164.605469 68.007812 164.101562 68.085938 C 163.601562 68.164062 163.058594 68.203125 162.554688 68.203125 C 162.050781 68.203125 161.511719 68.164062 161.007812 68.085938 C 160.503906 68.007812 159.960938 67.890625 159.460938 67.699219 C 160 67.503906 160.503906 67.390625 161.007812 67.3125 Z M 160.660156 72.035156 C 161.199219 71.957031 161.78125 71.917969 162.324219 71.917969 C 162.863281 71.917969 163.445312 71.957031 163.988281 72.035156 C 164.527344 72.109375 165.109375 72.226562 165.652344 72.421875 C 165.109375 72.613281 164.527344 72.730469 163.988281 72.808594 C 163.445312 72.882812 162.863281 72.921875 162.324219 72.921875 C 161.78125 72.921875 161.199219 72.882812 160.660156 72.808594 C 160.117188 72.730469 159.535156 72.613281 158.996094 72.421875 C 159.535156 72.226562 160.117188 72.148438 160.660156 72.035156 Z M 158.839844 77.179688 C 159.460938 76.988281 160.078125 76.871094 160.699219 76.792969 C 161.316406 76.714844 161.9375 76.675781 162.554688 76.675781 C 163.175781 76.675781 163.792969 76.714844 164.414062 76.792969 C 165.03125 76.871094 165.652344 76.988281 166.269531 77.179688 C 165.652344 77.414062 165.03125 77.488281 164.414062 77.566406 C 163.792969 77.644531 163.175781 77.683594 162.554688 77.683594 C 161.9375 77.683594 161.316406 77.644531 160.699219 77.566406 C 160.078125 77.488281 159.460938 77.375 158.839844 77.179688 Z M 163.40625 101.792969 C 156.671875 102.410156 149.863281 102.410156 143.128906 101.792969 C 149.863281 101.171875 156.671875 101.171875 163.40625 101.792969 Z M 140.070312 107.289062 C 171.417969 107.171875 205.78125 106.320312 236.976562 107.289062 L 236.976562 107.402344 C 205.78125 108.371094 171.378906 107.519531 140.070312 107.402344 Z M 147.460938 110.152344 C 151.527344 110.035156 155.707031 109.726562 159.769531 110.421875 L 159.769531 110.539062 C 155.742188 111.273438 151.5625 110.925781 147.460938 110.847656 C 145.21875 110.769531 142.355469 110.652344 140.070312 110.578125 L 140.070312 110.460938 C 142.316406 110.34375 145.179688 110.226562 147.460938 110.152344 Z M 153.578125 113.207031 C 158.105469 113.054688 162.59375 113.015625 167.082031 113.554688 L 167.082031 113.671875 C 162.59375 114.214844 158.066406 114.214844 153.578125 114.019531 C 149.28125 113.945312 144.328125 113.828125 140.070312 113.671875 L 140.070312 113.554688 C 144.328125 113.441406 149.320312 113.285156 153.578125 113.207031 Z M 140.070312 116.847656 L 140.070312 116.730469 C 171.417969 116.613281 205.78125 115.761719 236.976562 116.730469 L 236.976562 116.847656 C 205.78125 117.8125 171.378906 116.960938 140.070312 116.847656 Z M 172.925781 169.242188 C 171.726562 169.863281 170.296875 169.863281 169.09375 169.242188 C 170.296875 168.625 171.726562 168.625 172.925781 169.242188 Z M 169.328125 165.101562 C 170.757812 164.484375 172.421875 164.484375 173.855469 165.101562 C 172.421875 165.722656 170.757812 165.722656 169.328125 165.101562 Z M 172.191406 173.304688 C 171.144531 173.925781 169.832031 173.925781 168.824219 173.304688 C 169.871094 172.6875 171.144531 172.6875 172.191406 173.304688 Z M 171.183594 177.449219 C 170.21875 178.066406 168.980469 178.066406 168.050781 177.449219 C 169.019531 176.828125 170.257812 176.828125 171.183594 177.449219 Z M 170.21875 181.511719 C 169.367188 182.128906 168.167969 182.128906 167.316406 181.511719 C 168.167969 180.929688 169.367188 180.890625 170.21875 181.511719 Z M 169.25 185.652344 C 168.476562 186.269531 167.390625 186.230469 166.65625 185.652344 C 167.429688 185.03125 168.476562 185.070312 169.25 185.652344 Z M 165.148438 193.855469 C 165.652344 193.273438 166.503906 193.273438 167.003906 193.855469 C 166.503906 194.472656 165.652344 194.472656 165.148438 193.855469 Z M 165.84375 197.957031 C 165.417969 198.578125 164.644531 198.539062 164.179688 197.957031 C 164.605469 197.375 165.378906 197.375 165.84375 197.957031 Z M 166.117188 189.753906 C 166.695312 189.132812 167.625 189.132812 168.242188 189.753906 C 167.664062 190.332031 166.734375 190.332031 166.117188 189.753906 Z M 160.773438 205.195312 C 155.667969 245.632812 134.574219 279.882812 149.707031 280.808594 L 129.890625 280.808594 C 145.796875 259.640625 155.472656 232.707031 160.773438 205.195312 Z M 112.128906 311.535156 L 112.128906 311.460938 C 113.597656 311.304688 115.070312 311.1875 116.503906 311.109375 C 117.972656 311.035156 119.441406 310.996094 120.875 310.957031 C 122.347656 310.917969 123.816406 310.917969 125.25 310.957031 C 126.71875 310.996094 128.1875 311.035156 129.621094 311.074219 L 130.125 311.074219 C 131.710938 311.074219 133.257812 311.035156 134.847656 311.035156 L 142.429688 310.996094 L 150.015625 311.035156 L 153.808594 311.074219 L 155.707031 311.109375 L 157.601562 311.148438 C 162.671875 311.226562 167.703125 311.34375 172.773438 311.535156 C 167.703125 311.730469 162.671875 311.847656 157.601562 311.921875 L 155.707031 311.960938 L 153.808594 311.960938 L 150.015625 312 L 142.429688 312.039062 L 134.847656 312 C 133.492188 312 132.097656 311.960938 130.742188 311.960938 L 129.621094 311.960938 C 128.152344 312 126.679688 312.039062 125.25 312.078125 C 123.777344 312.117188 122.308594 312.117188 120.875 312.078125 C 119.40625 312.039062 117.933594 312 116.503906 311.921875 C 115.03125 311.769531 113.5625 311.691406 112.128906 311.535156 Z M 154.738281 327.75 C 150.519531 327.828125 146.339844 327.867188 142.121094 327.867188 C 138.484375 327.867188 134.847656 327.828125 131.207031 327.789062 L 129.777344 327.828125 C 128.691406 327.867188 127.609375 327.90625 126.5625 327.945312 C 125.480469 327.984375 124.398438 327.984375 123.351562 327.945312 C 122.269531 327.90625 121.183594 327.867188 120.140625 327.789062 C 119.054688 327.710938 117.972656 327.597656 116.929688 327.441406 L 116.929688 327.324219 C 118.011719 327.171875 119.09375 327.054688 120.140625 326.976562 C 121.222656 326.898438 122.308594 326.859375 123.351562 326.824219 C 124.433594 326.785156 125.519531 326.785156 126.5625 326.824219 C 127.648438 326.859375 128.730469 326.898438 129.777344 326.9375 L 131.015625 326.976562 C 134.730469 326.9375 138.40625 326.898438 142.121094 326.898438 C 146.339844 326.898438 150.519531 326.9375 154.738281 327.015625 C 158.957031 327.09375 163.136719 327.210938 167.355469 327.402344 C 163.175781 327.597656 158.957031 327.710938 154.738281 327.75 Z M 167.082031 332.664062 C 162.941406 332.859375 158.761719 332.976562 154.621094 333.054688 C 150.480469 333.128906 146.300781 333.167969 142.160156 333.167969 C 138.445312 333.167969 134.769531 333.128906 131.054688 333.089844 L 129.542969 333.128906 C 128.5 333.167969 127.492188 333.207031 126.449219 333.246094 C 125.402344 333.285156 124.398438 333.285156 123.351562 333.246094 C 122.308594 333.207031 121.300781 333.167969 120.257812 333.089844 C 119.210938 333.015625 118.203125 332.898438 117.160156 332.742188 L 117.160156 332.664062 C 118.203125 332.511719 119.210938 332.394531 120.257812 332.316406 C 121.300781 332.242188 122.308594 332.203125 123.351562 332.164062 C 124.398438 332.125 125.402344 332.125 126.449219 332.164062 C 127.492188 332.203125 128.5 332.242188 129.542969 332.277344 L 130.898438 332.242188 C 134.652344 332.164062 138.367188 332.164062 142.121094 332.164062 C 146.261719 332.164062 150.441406 332.203125 154.582031 332.277344 C 158.761719 332.355469 162.902344 332.472656 167.082031 332.664062 Z M 119.40625 337.582031 C 120.449219 337.503906 121.496094 337.464844 122.5 337.425781 C 123.546875 337.386719 124.589844 337.386719 125.597656 337.425781 C 126.640625 337.464844 127.6875 337.503906 128.691406 337.542969 L 130.203125 337.582031 C 131.980469 337.542969 133.761719 337.542969 135.542969 337.503906 L 141.964844 337.464844 L 148.390625 337.503906 L 151.601562 337.542969 L 153.226562 337.542969 L 154.855469 337.582031 C 159.148438 337.65625 163.40625 337.773438 167.703125 337.96875 C 163.40625 338.160156 159.148438 338.277344 154.855469 338.355469 L 153.226562 338.394531 L 151.601562 338.394531 L 148.390625 338.433594 L 141.964844 338.46875 L 135.542969 338.433594 C 133.761719 338.394531 131.980469 338.394531 130.203125 338.355469 L 128.691406 338.394531 C 127.648438 338.433594 126.601562 338.46875 125.597656 338.507812 C 124.550781 338.546875 123.507812 338.546875 122.5 338.507812 C 121.457031 338.46875 120.410156 338.433594 119.40625 338.355469 C 118.359375 338.277344 117.316406 338.160156 116.308594 338.007812 L 116.308594 337.929688 C 117.316406 337.734375 118.359375 337.65625 119.40625 337.582031 Z M 155.316406 322.488281 L 153.691406 322.527344 L 152.066406 322.527344 L 148.816406 322.566406 L 142.316406 322.605469 L 135.8125 322.566406 C 134.304688 322.527344 132.792969 322.527344 131.285156 322.527344 L 129.96875 322.566406 C 128.847656 322.605469 127.6875 322.644531 126.5625 322.683594 C 125.441406 322.71875 124.28125 322.71875 123.160156 322.683594 C 122.035156 322.644531 120.875 322.605469 119.753906 322.527344 C 118.628906 322.449219 117.46875 322.332031 116.347656 322.179688 L 116.347656 322.101562 C 117.46875 321.945312 118.628906 321.832031 119.753906 321.753906 C 120.875 321.675781 122.035156 321.636719 123.160156 321.597656 C 124.28125 321.558594 125.441406 321.558594 126.5625 321.597656 C 127.6875 321.636719 128.847656 321.675781 129.96875 321.714844 L 130.9375 321.753906 C 132.5625 321.714844 134.1875 321.714844 135.8125 321.714844 L 142.316406 321.675781 L 148.816406 321.714844 L 152.066406 321.753906 L 155.316406 321.832031 C 159.652344 321.90625 163.988281 322.023438 168.320312 322.21875 C 163.988281 322.292969 159.652344 322.410156 155.316406 322.488281 Z M 118.050781 342.882812 C 119.132812 342.804688 120.21875 342.765625 121.339844 342.726562 C 122.421875 342.6875 123.507812 342.6875 124.628906 342.726562 C 125.710938 342.765625 126.796875 342.804688 127.917969 342.84375 L 129.542969 342.882812 C 131.402344 342.84375 133.257812 342.84375 135.117188 342.804688 L 141.890625 342.765625 L 148.660156 342.804688 L 152.027344 342.84375 L 153.730469 342.84375 L 155.433594 342.882812 C 159.960938 342.960938 164.453125 343.074219 168.980469 343.269531 C 164.453125 343.460938 159.960938 343.578125 155.433594 343.65625 L 153.730469 343.695312 L 152.027344 343.695312 L 148.660156 343.734375 L 141.890625 343.773438 L 135.117188 343.734375 C 133.21875 343.695312 131.324219 343.695312 129.429688 343.65625 L 127.878906 343.695312 C 126.796875 343.734375 125.710938 343.773438 124.589844 343.8125 C 123.507812 343.851562 122.421875 343.851562 121.300781 343.8125 C 120.21875 343.773438 119.132812 343.734375 118.011719 343.65625 C 116.929688 343.578125 115.84375 343.460938 114.722656 343.308594 L 114.722656 343.191406 C 115.882812 343.039062 116.964844 342.960938 118.050781 342.882812 Z M 156.246094 317.1875 L 154.503906 317.226562 L 152.765625 317.226562 L 149.320312 317.265625 L 142.390625 317.304688 L 135.464844 317.265625 C 134.03125 317.265625 132.601562 317.226562 131.128906 317.226562 L 129.890625 317.265625 C 128.613281 317.304688 127.375 317.339844 126.101562 317.378906 C 124.824219 317.417969 123.585938 317.417969 122.308594 317.378906 C 121.03125 317.339844 119.792969 317.304688 118.515625 317.226562 C 117.238281 317.148438 116 317.03125 114.722656 316.878906 L 114.722656 316.761719 C 116 316.605469 117.238281 316.488281 118.515625 316.414062 C 119.792969 316.335938 121.03125 316.296875 122.308594 316.257812 C 123.585938 316.21875 124.824219 316.21875 126.101562 316.257812 C 127.375 316.296875 128.613281 316.335938 129.890625 316.375 L 130.667969 316.375 C 132.253906 316.335938 133.878906 316.335938 135.464844 316.335938 L 142.390625 316.296875 L 149.320312 316.335938 L 152.765625 316.375 L 154.503906 316.414062 L 156.246094 316.453125 C 160.851562 316.527344 165.457031 316.644531 170.0625 316.839844 C 165.457031 316.992188 160.851562 317.109375 156.246094 317.1875 Z M 116.230469 348.183594 C 117.390625 348.105469 118.59375 348.027344 119.753906 348.027344 C 120.914062 347.992188 122.113281 347.992188 123.273438 348.027344 C 124.433594 348.066406 125.636719 348.105469 126.796875 348.144531 L 128.652344 348.183594 C 130.667969 348.144531 132.640625 348.144531 134.652344 348.105469 L 141.964844 348.066406 L 149.28125 348.105469 L 152.957031 348.144531 L 154.777344 348.144531 L 156.59375 348.183594 C 161.472656 348.261719 166.347656 348.378906 171.222656 348.570312 C 166.347656 348.765625 161.472656 348.878906 156.59375 348.957031 L 154.777344 348.996094 L 152.957031 348.996094 L 149.320312 349.035156 L 142.003906 349.074219 L 134.691406 349.035156 C 132.601562 348.996094 130.550781 348.996094 128.460938 348.957031 L 126.835938 348.996094 C 125.675781 349.035156 124.472656 349.074219 123.3125 349.113281 C 122.152344 349.152344 120.953125 349.152344 119.792969 349.113281 C 118.628906 349.074219 117.429688 349.035156 116.269531 348.957031 C 115.109375 348.878906 113.910156 348.765625 112.75 348.609375 L 112.75 348.492188 C 113.910156 348.339844 115.070312 348.261719 116.230469 348.183594 Z M 158.144531 354.257812 L 154.042969 354.335938 L 149.9375 354.375 L 141.734375 354.414062 L 133.53125 354.375 C 131.324219 354.335938 129.078125 354.335938 126.875 354.296875 L 125.363281 354.335938 C 123.972656 354.375 122.617188 354.414062 121.222656 354.453125 C 119.832031 354.492188 118.476562 354.492188 117.082031 354.453125 C 115.6875 354.414062 114.335938 354.375 112.941406 354.296875 C 111.546875 354.222656 110.195312 354.105469 108.800781 353.949219 L 108.800781 353.832031 C 110.195312 353.679688 111.546875 353.5625 112.941406 353.484375 C 114.335938 353.40625 115.6875 353.332031 117.082031 353.332031 C 118.476562 353.292969 119.832031 353.292969 121.222656 353.332031 C 122.617188 353.371094 123.972656 353.40625 125.363281 353.445312 L 127.300781 353.484375 C 129.390625 353.445312 131.441406 353.445312 133.53125 353.445312 L 141.734375 353.40625 L 149.9375 353.445312 L 154.042969 353.484375 L 156.09375 353.484375 L 158.144531 353.523438 C 163.636719 353.601562 169.09375 353.71875 174.589844 353.910156 C 169.09375 354.066406 163.636719 354.183594 158.144531 354.257812 Z M 169.328125 161 C 171.109375 160.382812 173.082031 160.382812 174.898438 161 C 173.121094 161.621094 171.144531 161.621094 169.328125 161 Z M 169.289062 156.859375 C 171.417969 156.242188 173.699219 156.242188 175.789062 156.859375 C 173.699219 157.480469 171.417969 157.480469 169.289062 156.859375 Z M 168.824219 152.796875 C 171.378906 152.175781 174.050781 152.175781 176.5625 152.796875 C 174.050781 153.414062 171.378906 153.414062 168.824219 152.796875 Z M 168.554688 148.65625 C 171.378906 148.035156 174.320312 148.035156 177.105469 148.617188 C 174.28125 149.273438 171.339844 149.273438 168.554688 148.65625 Z M 168.28125 144.554688 C 171.417969 143.933594 174.667969 143.933594 177.804688 144.554688 C 174.667969 145.210938 171.417969 145.210938 168.28125 144.554688 Z M 167.816406 140.453125 C 171.339844 139.832031 174.976562 139.792969 178.5 140.414062 C 174.976562 141.070312 171.378906 141.070312 167.816406 140.453125 Z M 167.355469 136.351562 C 171.222656 135.730469 175.171875 135.730469 179.042969 136.351562 C 175.171875 136.96875 171.222656 136.96875 167.355469 136.351562 Z M 167.082031 132.210938 C 171.378906 131.589844 175.75 131.550781 180.046875 132.171875 C 175.75 132.828125 171.378906 132.828125 167.082031 132.210938 Z M 166.851562 128.144531 C 171.609375 127.527344 176.488281 127.527344 181.246094 128.144531 C 176.488281 128.765625 171.648438 128.765625 166.851562 128.144531 Z M 204.195312 248.535156 L 199.511719 243.855469 L 204.195312 127.140625 Z M 210.851562 242.886719 L 210.851562 126.597656 L 218.398438 126.597656 C 215.535156 129.269531 213.753906 132.867188 213.445312 136.777344 C 210.3125 182.863281 220.140625 242.652344 248.777344 280.808594 C 227.84375 280.808594 210.851562 263.820312 210.851562 242.886719 Z M 266.542969 355.265625 C 266.503906 355.265625 232.332031 355.226562 232.292969 355.226562 C 231.597656 355.109375 246.148438 353.523438 253.191406 354.027344 C 253.5 353.019531 253.769531 352.015625 254.003906 351.046875 C 259.5 350.738281 263.523438 350.003906 263.832031 349.925781 C 263.832031 349.925781 234.113281 349.925781 234.074219 349.886719 C 233.453125 349.65625 249.203125 348.027344 254.546875 348.804688 C 254.816406 347.71875 255.007812 346.636719 255.242188 345.550781 C 259.265625 345.203125 262.089844 344.625 262.324219 344.585938 C 262.324219 344.585938 234.886719 344.585938 234.847656 344.546875 C 234.460938 344.160156 251.023438 342.613281 255.550781 343.617188 C 255.746094 342.457031 255.898438 341.257812 256.054688 340.097656 C 259.304688 339.746094 261.511719 339.285156 261.742188 339.246094 C 261.742188 339.246094 235.503906 339.246094 235.503906 339.246094 C 235.351562 338.742188 252.066406 337.308594 256.246094 338.394531 C 256.363281 337.15625 256.441406 335.957031 256.480469 334.71875 C 259.34375 334.367188 261.238281 333.941406 261.433594 333.90625 C 261.433594 333.90625 236.625 333.90625 236.589844 333.90625 C 236.472656 333.363281 252.570312 331.96875 256.480469 333.089844 C 256.480469 331.851562 256.480469 330.652344 256.441406 329.453125 C 259.148438 329.144531 261.085938 328.71875 261.628906 328.601562 C 260.464844 338.742188 264.800781 349.304688 273.121094 355.148438 L 266 355.148438 C 266.386719 355.265625 266.542969 355.265625 266.542969 355.265625 Z M 266.542969 355.265625"/></g></svg>