<svg xmlns="http://www.w3.org/2000/svg" width="375" viewBox="0 0 375 375" height="375" version="1.0">
  <path fill="#FFF"
        d="M 222.285156 157.335938 C 211.515625 157.335938 203.015625 166.59375 203.015625 178.136719 C 203.015625 189.679688 211.710938 198.9375 222.285156 198.9375 C 233.054688 198.9375 241.554688 189.679688 241.554688 178.136719 C 241.554688 166.59375 232.863281 157.335938 222.285156 157.335938 Z M 153.332031 157.335938 C 142.5625 157.335938 134.0625 166.59375 134.0625 178.136719 C 134.0625 189.679688 142.753906 198.9375 153.332031 198.9375 C 164.101562 198.9375 172.601562 189.679688 172.601562 178.136719 C 172.789062 166.59375 164.101562 157.335938 153.332031 157.335938 Z M 314.101562 0 L 60.953125 0 C 59.6875 0.00390625 58.421875 0.0664062 57.160156 0.195312 C 55.898438 0.320312 54.648438 0.507812 53.40625 0.757812 C 52.160156 1.007812 50.933594 1.316406 49.722656 1.6875 C 48.507812 2.058594 47.316406 2.484375 46.148438 2.972656 C 44.976562 3.460938 43.832031 4.003906 42.714844 4.601562 C 41.597656 5.199219 40.511719 5.851562 39.457031 6.558594 C 38.40625 7.265625 37.386719 8.019531 36.410156 8.824219 C 35.429688 9.628906 34.492188 10.480469 33.59375 11.378906 C 32.699219 12.273438 31.847656 13.214844 31.042969 14.195312 C 30.238281 15.175781 29.484375 16.191406 28.78125 17.246094 C 28.074219 18.300781 27.421875 19.390625 26.824219 20.507812 C 26.226562 21.625 25.683594 22.773438 25.199219 23.945312 C 24.710938 25.113281 24.285156 26.308594 23.914062 27.523438 C 23.542969 28.734375 23.234375 29.964844 22.984375 31.207031 C 22.738281 32.453125 22.546875 33.707031 22.421875 34.96875 C 22.296875 36.230469 22.230469 37.496094 22.226562 38.765625 L 22.226562 292.171875 C 22.230469 293.441406 22.296875 294.707031 22.421875 295.96875 C 22.546875 297.230469 22.738281 298.484375 22.984375 299.730469 C 23.234375 300.972656 23.542969 302.203125 23.914062 303.414062 C 24.285156 304.628906 24.710938 305.824219 25.199219 306.992188 C 25.683594 308.164062 26.226562 309.3125 26.824219 310.429688 C 27.421875 311.546875 28.074219 312.636719 28.78125 313.691406 C 29.484375 314.746094 30.238281 315.761719 31.042969 316.742188 C 31.847656 317.722656 32.699219 318.664062 33.59375 319.558594 C 34.492188 320.457031 35.429688 321.308594 36.410156 322.113281 C 37.386719 322.917969 38.40625 323.671875 39.457031 324.378906 C 40.511719 325.085938 41.597656 325.738281 42.714844 326.335938 C 43.832031 326.933594 44.976562 327.476562 46.148438 327.964844 C 47.316406 328.453125 48.507812 328.878906 49.722656 329.25 C 50.933594 329.621094 52.160156 329.929688 53.40625 330.179688 C 54.648438 330.429688 55.898438 330.617188 57.160156 330.742188 C 58.421875 330.871094 59.6875 330.933594 60.953125 330.9375 L 275.1875 330.9375 L 265.238281 296.332031 L 289.414062 318.644531 L 312.269531 339.632812 L 353.015625 375 L 353.015625 38.765625 C 352.828125 17.402344 335.449219 0 314.101562 0 Z M 241.179688 244.890625 L 228.714844 229.761719 C 253.460938 222.765625 262.910156 207.449219 262.910156 207.449219 C 255.164062 212.546875 247.796875 216.152344 241.179688 218.605469 C 231.734375 222.578125 222.667969 225.035156 213.785156 226.738281 C 195.652344 230.136719 179.03125 229.199219 164.851562 226.550781 C 154.082031 224.472656 144.832031 221.628906 137.082031 218.417969 C 132.742188 216.660156 128.011719 214.640625 123.292969 211.992188 C 122.726562 211.609375 122.15625 211.421875 121.539062 211.054688 C 121.15625 210.867188 120.96875 210.671875 120.777344 210.671875 L 115.484375 207.449219 C 115.484375 207.449219 124.558594 222.390625 148.542969 229.574219 L 135.890625 245.078125 C 94.136719 243.753906 78.269531 216.527344 78.269531 216.527344 C 78.269531 156.199219 105.476562 107.21875 105.476562 107.21875 C 132.683594 86.988281 158.371094 87.550781 158.371094 87.550781 L 160.261719 89.816406 C 126.3125 99.460938 110.765625 114.402344 110.765625 114.402344 C 110.765625 114.402344 114.863281 112.136719 121.910156 109.105469 C 142.125 100.21875 158.183594 97.949219 164.792969 97.195312 C 165.929688 97.007812 166.871094 96.8125 168.011719 96.8125 C 180.71875 95.15625 193.4375 95.03125 206.171875 96.433594 C 216.136719 97.585938 225.898438 99.671875 235.464844 102.691406 C 245.027344 105.714844 254.21875 109.617188 263.039062 114.398438 C 263.039062 114.398438 248.113281 100.21875 216 90.566406 L 218.644531 87.542969 C 218.644531 87.542969 244.527344 86.976562 271.542969 107.214844 C 298.554688 127.453125 298.75 156.199219 298.75 216.519531 C 298.75 216.332031 282.945312 243.5625 241.128906 244.878906 Z M 241.179688 244.890625"/>
</svg>
