<svg xmlns="http://www.w3.org/2000/svg" width="500" height="500"
     version="1.2" viewBox="0 0 375 375">
  <g id="surface1">
    <path style="stroke:none;fill-rule:nonzero;fill:#fff;fill-opacity:1"
          d="M 333.332031 0 L 41.667969 0 C 18.644531 0 0 18.644531 0 41.667969 L 0 333.332031 C 0 356.355469 18.644531 375 41.667969 375 L 200.4375 375 L 200.4375 229.980469 L 151.625 229.980469 L 151.625 173.207031 L 200.4375 173.207031 L 200.4375 131.4375 C 200.4375 83.019531 230.042969 56.625 273.25 56.625 C 287.8125 56.582031 302.355469 57.332031 316.832031 58.8125 L 316.832031 109.4375 L 287.082031 109.4375 C 263.542969 109.4375 258.957031 120.5625 258.957031 136.980469 L 258.957031 173.125 L 315.207031 173.125 L 307.894531 229.894531 L 258.625 229.894531 L 258.625 375 L 333.332031 375 C 356.355469 375 375 356.355469 375 333.332031 L 375 41.667969 C 375 18.644531 356.355469 0 333.332031 0 Z M 333.332031 0"/>
  </g>
</svg>
