<svg xmlns="http://www.w3.org/2000/svg" width="500" height="500"
     version="1.2" viewBox="0 0 375 375">
  <defs>
    <clipPath id="clip1">
      <path d="M 71.015625 0 L 304 0 L 304 374 L 71.015625 374 Z M 71.015625 0"/>
    </clipPath>
  </defs>
  <g id="surface1">
    <g clip-path="url(#clip1)" clip-rule="nonzero">
      <path style="stroke:none;fill-rule:nonzero;fill:#343a40;fill-opacity:1"
            d="M 254.960938 181.34375 C 253.699219 181.9375 252.695312 182.859375 252.226562 184.195312 C 251.761719 185.527344 252.03125 186.839844 252.261719 188.183594 C 252.445312 189.242188 254.210938 189.242188 254.390625 188.183594 C 254.546875 187.304688 254.730469 186.441406 254.960938 185.582031 C 255.160156 184.835938 255.898438 184.378906 256.503906 183.980469 C 258.164062 182.886719 256.734375 180.511719 254.960938 181.34375 Z M 258.386719 201.414062 C 258.726562 199.539062 259.261719 197.71875 260.410156 196.164062 C 260.710938 195.761719 260.101562 195.398438 259.765625 195.667969 C 258.191406 196.953125 256.457031 199.046875 256.324219 201.132812 C 256.253906 202.304688 258.175781 202.578125 258.386719 201.414062 Z M 249.328125 201.917969 C 241.894531 219.03125 225.054688 232.582031 224.960938 252.417969 C 224.949219 254.292969 227.792969 254.277344 227.859375 252.417969 C 228.570312 233.300781 244.765625 220.09375 251.945312 203.445312 C 252.707031 201.675781 250.105469 200.128906 249.328125 201.917969 Z M 185.507812 33.449219 C 186.78125 33.9375 188.144531 34.273438 189.3125 34.742188 C 191.019531 35.425781 193.015625 34.007812 193.460938 32.386719 C 193.914062 30.746094 192.917969 28.566406 191.105469 28.246094 C 189.75 28 188.371094 27.855469 186.992188 27.832031 C 186.5625 27.824219 186.132812 27.808594 185.699219 27.820312 C 185.398438 27.714844 185.066406 27.640625 184.683594 27.640625 C 180.863281 27.640625 180.863281 33.566406 184.683594 33.566406 C 184.988281 33.566406 185.253906 33.519531 185.507812 33.449219 Z M 296.089844 196.46875 C 290.253906 196.449219 280.917969 195.441406 274.601562 198.269531 C 275.5625 193.664062 276.359375 189.023438 277.007812 184.359375 C 282.933594 182.835938 288.949219 182.300781 295.054688 181.839844 C 297.636719 181.648438 297.671875 177.941406 295.054688 177.808594 C 289.195312 177.511719 282.792969 178.5625 277.425781 181.191406 C 278.007812 176.484375 278.429688 171.757812 278.703125 167.015625 C 284.636719 165.046875 290.566406 163.09375 296.691406 161.757812 C 296.710938 162.066406 296.734375 162.378906 296.75 162.6875 C 297.390625 173.894531 297.207031 185.246094 296.089844 196.46875 Z M 294.253906 210.125 C 293.945312 211.90625 293.597656 213.679688 293.234375 215.449219 C 293.136719 215.417969 293.046875 215.382812 292.9375 215.371094 C 285.484375 214.191406 277.777344 214.671875 270.222656 215.519531 C 271.492188 211.300781 272.625 207.042969 273.617188 202.757812 C 280.542969 200.144531 288.179688 200.664062 295.605469 200.804688 C 295.226562 203.921875 294.789062 207.035156 294.253906 210.125 Z M 288.988281 232.628906 C 286.933594 232.039062 284.691406 231.996094 282.574219 231.753906 C 278.859375 231.335938 275.136719 231.109375 271.394531 231.238281 C 268.980469 231.324219 266.546875 231.667969 264.3125 232.417969 C 266.082031 228.007812 267.683594 223.550781 269.128906 219.042969 C 276.84375 219.417969 284.597656 218.90625 292.324219 219.636719 C 291.328125 223.996094 290.199219 228.320312 288.988281 232.628906 Z M 278.484375 268.535156 C 278.34375 268.441406 278.183594 268.363281 277.992188 268.3125 C 267.882812 265.726562 257.773438 267.464844 247.5625 268.3125 C 248.316406 266.613281 249.066406 264.984375 249.769531 263.449219 C 250.882812 261.023438 252.035156 258.628906 253.207031 256.238281 C 256.085938 255.734375 258.957031 255.164062 261.828125 254.617188 C 267.601562 253.519531 272 253.761719 277.578125 255.1875 C 278.269531 255.363281 279.070312 255.195312 279.574219 254.660156 C 279.695312 254.527344 279.8125 254.402344 279.894531 254.246094 C 280.320312 253.433594 280.257812 252.417969 279.574219 251.757812 C 275.988281 248.296875 269.570312 248.992188 265.066406 249.566406 C 261.855469 249.976562 258.703125 250.695312 255.5625 251.441406 C 257.847656 246.8125 260.125 242.179688 262.207031 237.4375 C 265.878906 236.046875 269.828125 235.625 273.847656 235.640625 C 278.253906 235.660156 283.222656 237.234375 287.710938 237.101562 C 284.652344 247.582031 281.285156 257.988281 278.484375 268.535156 Z M 276.042969 278.519531 C 275.816406 279.542969 276.097656 280.394531 276.621094 281.03125 C 270.8125 278.125 263.015625 278.152344 256.824219 278.160156 C 252.453125 278.171875 247.128906 278.386719 242.957031 280.410156 C 244.148438 276.375 245.757812 272.410156 247.371094 268.753906 C 257.261719 269.335938 267.492188 268.910156 277.117188 271.476562 C 277.332031 271.53125 277.527344 271.539062 277.714844 271.523438 C 277.125 273.847656 276.558594 276.175781 276.042969 278.519531 Z M 278.414062 134.242188 C 282.167969 131.363281 286.105469 129.132812 290.222656 126.863281 C 290.976562 126.445312 291.296875 125.777344 291.3125 125.097656 C 293.867188 135.796875 295.527344 146.710938 296.394531 157.585938 C 296.214844 157.578125 296.03125 157.585938 295.835938 157.625 C 290.054688 158.808594 284.15625 160.476562 278.878906 163.230469 C 279.042969 158.867188 279.046875 154.488281 278.882812 150.121094 C 280.820312 149.550781 282.710938 148.859375 284.621094 148.175781 C 287.109375 147.285156 289.757812 146.589844 292.128906 145.433594 C 294.5 144.273438 292.753906 140.933594 290.425781 141.402344 C 287.761719 141.9375 285.132812 143.28125 282.605469 144.273438 C 281.285156 144.785156 279.976562 145.304688 278.671875 145.84375 C 278.4375 142.078125 278.082031 138.316406 277.59375 134.578125 C 277.855469 134.558594 278.132812 134.460938 278.414062 134.242188 Z M 243.3125 325.921875 C 244.042969 326.992188 245.25 327.738281 246.597656 327.667969 C 248.285156 327.582031 250.316406 327.699219 251.9375 327.144531 C 251.445312 327.816406 251.183594 328.632812 251.265625 329.472656 C 230.199219 329.664062 209.144531 330.902344 188.125 332.242188 C 186.261719 332.363281 184.398438 332.484375 182.539062 332.609375 C 201.625 330.621094 220.738281 327.761719 239.871094 327.824219 C 241.53125 327.832031 242.675781 327.027344 243.3125 325.921875 Z M 254.75 334.042969 C 259.484375 338.894531 264.171875 343.589844 269.570312 347.6875 C 269.542969 347.671875 269.519531 347.648438 269.480469 347.644531 C 238.207031 346.273438 206.914062 346.375 175.59375 346.320312 C 159.714844 346.292969 143.832031 346.261719 127.953125 346.234375 C 121.109375 346.222656 114.261719 346.230469 107.410156 346.1875 C 108.929688 344.535156 110.71875 343.160156 112.648438 341.964844 C 122.6875 342.535156 132.789062 342.210938 142.835938 342.199219 C 155.4375 342.1875 168.042969 342.175781 180.648438 342.164062 C 193.253906 342.148438 205.859375 342.136719 218.460938 342.125 C 224.738281 342.117188 231.011719 342.109375 237.289062 342.109375 C 243.757812 342.101562 249.9375 342.238281 256.214844 340.5 C 256.90625 340.308594 256.90625 339.292969 256.214844 339.101562 C 244.816406 335.941406 231.914062 337.484375 220.175781 337.476562 C 207.570312 337.464844 194.96875 337.449219 182.371094 337.4375 C 181.277344 337.4375 180.1875 337.4375 179.097656 337.433594 C 181.609375 337.269531 184.121094 337.101562 186.636719 336.9375 C 209.304688 335.476562 232.019531 334.121094 254.75 334.042969 Z M 269.652344 347.746094 C 269.949219 347.972656 270.261719 348.1875 270.5625 348.40625 C 269.707031 349 269.027344 349.890625 268.703125 351.074219 C 268.558594 351.625 268.429688 352.207031 268.320312 352.8125 C 265.816406 352.214844 263.078125 352.085938 260.339844 352.121094 C 260.40625 351.78125 260.347656 351.417969 260.101562 351.085938 C 259.535156 350.3125 258.753906 349.882812 257.90625 349.464844 C 257.699219 349.363281 257.496094 349.253906 257.300781 349.128906 C 257.332031 349.140625 257.304688 349.101562 257.277344 349.078125 C 257.261719 349.015625 257.242188 348.945312 257.238281 348.875 C 257.21875 348.757812 257.175781 348.652344 257.113281 348.550781 C 261.234375 348.417969 265.359375 348.269531 269.480469 348.085938 C 269.679688 348.078125 269.730469 347.878906 269.652344 347.746094 Z M 250.972656 352.4375 C 242.597656 352.4375 234.21875 352.441406 225.84375 352.445312 C 209.4375 352.449219 193.027344 352.453125 176.621094 352.457031 C 160.121094 352.457031 143.621094 352.449219 127.121094 352.515625 C 119.1875 352.542969 111.257812 352.574219 103.324219 352.605469 C 95.421875 352.636719 87.535156 352.394531 79.742188 353.734375 C 81.484375 352.34375 83.1875 350.917969 84.859375 349.460938 C 90.691406 350.351562 97.042969 349.726562 102.902344 349.582031 C 103.195312 350.304688 104.40625 350.589844 104.855469 349.75 C 104.890625 349.683594 104.933594 349.625 104.972656 349.554688 C 112.628906 349.488281 120.296875 349.511719 127.953125 349.496094 C 143.832031 349.46875 159.714844 349.441406 175.59375 349.414062 C 202.058594 349.367188 228.503906 349.417969 254.933594 348.613281 C 254.835938 348.796875 254.777344 348.992188 254.757812 349.210938 C 254.695312 350.082031 255.070312 350.851562 255.695312 351.449219 C 255.878906 351.625 256.09375 351.78125 256.292969 351.929688 C 256.328125 351.957031 256.542969 352.125 256.609375 352.175781 C 256.636719 352.195312 256.65625 352.21875 256.683594 352.238281 C 254.695312 352.332031 252.757812 352.4375 250.972656 352.4375 Z M 103.859375 340.367188 C 104.058594 340.875 104.527344 341.292969 105.277344 341.375 C 106.085938 341.464844 106.898438 341.523438 107.710938 341.597656 C 106.324219 342.960938 105.109375 344.46875 104.152344 346.171875 C 101.949219 346.148438 99.671875 346.03125 97.367188 345.9375 C 99.472656 344.003906 101.632812 342.140625 103.859375 340.367188 Z M 114.035156 333.273438 C 115.949219 334.082031 118.304688 332.863281 119.191406 330.832031 C 130.910156 333.671875 142.644531 334.582031 154.386719 334.453125 C 154.054688 334.472656 153.730469 334.496094 153.402344 334.515625 C 143.285156 335.160156 132.949219 335.257812 122.898438 336.582031 C 123.015625 336.128906 123.015625 335.601562 122.847656 335.007812 C 122.066406 332.167969 118.503906 332.496094 117.496094 334.667969 C 115.875 335.59375 114.234375 336.570312 112.65625 337.632812 C 110.722656 337.746094 108.789062 337.894531 106.863281 338.082031 C 109.171875 336.375 111.558594 334.765625 114.035156 333.273438 Z M 119.28125 309.511719 C 119.308594 309.503906 119.332031 309.492188 119.359375 309.488281 C 119.453125 310.097656 119.839844 310.625 120.59375 310.84375 C 120.273438 315.640625 121.121094 322.308594 124.695312 325.71875 C 125.867188 326.84375 127.039062 328.039062 128.316406 329.007812 C 125.316406 328.628906 122.316406 328.132812 119.320312 327.492188 C 118.738281 324.578125 117.8125 321.851562 117.664062 318.804688 C 117.519531 315.808594 117.558594 312.816406 117.507812 309.820312 C 118.101562 309.714844 118.691406 309.621094 119.28125 309.511719 Z M 137.050781 326.527344 C 137.042969 327.789062 137.519531 329.007812 138.480469 329.875 C 137.4375 329.828125 136.390625 329.765625 135.347656 329.695312 C 135.484375 329.335938 135.523438 328.933594 135.402344 328.53125 C 134.953125 327.046875 134.382812 325.640625 133.75 324.273438 C 134.8125 325.074219 135.914062 325.824219 137.050781 326.527344 Z M 225.40625 319.757812 C 225.355469 319.941406 225.304688 320.125 225.277344 320.3125 C 224.210938 320.414062 223.140625 320.523438 222.070312 320.636719 C 223.179688 320.34375 224.296875 320.050781 225.40625 319.757812 Z M 235.671875 305.59375 C 235.679688 305.855469 235.6875 306.125 235.699219 306.386719 C 235.304688 306.414062 234.894531 306.488281 234.464844 306.617188 C 233.570312 306.886719 232.675781 307.148438 231.78125 307.410156 C 233.117188 306.9375 234.488281 306.347656 235.671875 305.59375 Z M 237.171875 319.578125 C 235.714844 319.617188 234.257812 319.679688 232.796875 319.757812 C 232.617188 319.109375 232.285156 318.515625 231.808594 318.039062 C 233.441406 317.589844 235.070312 317.132812 236.695312 316.664062 C 236.84375 317.636719 237 318.605469 237.171875 319.578125 Z M 101.03125 324.796875 C 100.644531 324.757812 100.425781 324.613281 101.03125 324.796875 Z M 134.457031 246.035156 C 134.5625 245.070312 134.703125 244.121094 134.894531 243.179688 C 137.289062 241.640625 139.871094 240.070312 142.378906 239.292969 C 141.871094 240.492188 141.523438 241.882812 141.285156 243.332031 C 138.914062 244.046875 136.644531 244.964844 134.457031 246.035156 Z M 140.628906 252.734375 C 140.625 252.8125 140.621094 252.894531 140.617188 252.972656 C 138.453125 253.746094 136.445312 254.742188 134.523438 255.910156 C 134.324219 253.847656 134.210938 251.800781 134.234375 249.785156 C 136.386719 248.269531 138.621094 246.863281 140.972656 245.796875 C 140.726562 248.472656 140.726562 251.0625 140.628906 252.734375 Z M 140.105469 263.652344 C 139.554688 263.898438 139.007812 264.144531 138.449219 264.394531 C 137.847656 264.484375 137.28125 264.734375 136.832031 265.128906 C 136.53125 265.273438 136.226562 265.414062 135.925781 265.558594 C 135.574219 263.597656 135.242188 261.613281 134.964844 259.628906 C 136.753906 258.1875 138.589844 256.800781 140.496094 255.484375 C 140.378906 258.210938 140.296875 260.925781 140.105469 263.652344 Z M 130.359375 297.78125 C 130.441406 297.707031 130.523438 297.636719 130.597656 297.554688 C 130.683594 297.5625 130.757812 297.585938 130.847656 297.589844 C 131.546875 297.621094 132.242188 297.679688 132.933594 297.75 C 132.078125 297.761719 131.21875 297.773438 130.359375 297.78125 Z M 128.046875 271.003906 C 127.511719 271.601562 127.105469 272.222656 126.792969 272.855469 C 126.324219 271.101562 125.984375 269.3125 125.902344 267.527344 C 127.402344 266.140625 128.914062 264.769531 130.445312 263.429688 C 130.933594 264.898438 131.378906 266.375 131.796875 267.863281 C 130.425781 268.761719 129.144531 269.78125 128.046875 271.003906 Z M 106.011719 269.117188 C 105.222656 270.074219 104.523438 271.015625 103.964844 271.910156 C 102.96875 270.460938 102.050781 268.910156 101.445312 267.402344 C 101.628906 267.371094 101.8125 267.292969 102 267.167969 C 102.976562 266.511719 103.933594 265.832031 104.890625 265.144531 C 105.15625 266.492188 105.535156 267.816406 106.011719 269.117188 Z M 114.640625 277.910156 C 115.476562 277.167969 116.296875 276.425781 117.121094 275.675781 C 117.550781 276.46875 117.996094 277.246094 118.460938 278.019531 C 117.703125 278.605469 117.003906 279.261719 116.375 279.992188 C 115.734375 279.347656 115.125 278.675781 114.535156 277.988281 C 114.570312 277.960938 114.609375 277.941406 114.640625 277.910156 Z M 112.910156 259.046875 C 115.691406 256.859375 118.457031 254.65625 121.273438 252.519531 C 124.511719 250.0625 127.789062 247.6875 131.226562 245.519531 C 131.140625 246.300781 131.078125 247.089844 131.03125 247.878906 C 126.175781 250.714844 121.71875 254.261719 117.453125 257.988281 C 117.011719 258.371094 116.082031 259.160156 114.898438 260.210938 C 114.890625 260.160156 114.878906 260.113281 114.867188 260.066406 C 114.667969 258.992188 113.707031 258.746094 112.910156 259.046875 Z M 112.277344 275.078125 C 111.34375 273.738281 110.5 272.335938 109.753906 270.890625 C 110.894531 269.539062 112.128906 268.253906 113.382812 267.007812 C 113.925781 268.675781 114.550781 270.308594 115.253906 271.90625 C 114.238281 272.945312 113.238281 274.003906 112.277344 275.078125 Z M 107.90625 273.265625 C 109.445312 276.078125 111.40625 278.703125 113.609375 281.058594 C 113.25 281.386719 112.972656 281.785156 112.808594 282.242188 C 111.332031 280.714844 109.890625 279.160156 108.496094 277.558594 C 108.019531 277.011719 107.332031 276.238281 106.566406 275.3125 C 106.648438 275.1875 106.722656 275.066406 106.789062 274.957031 C 107.132812 274.382812 107.515625 273.816406 107.90625 273.265625 Z M 111.828125 260.90625 C 111.9375 261.496094 112.058594 262.085938 112.195312 262.675781 C 110.816406 263.96875 109.339844 265.410156 107.972656 266.882812 C 107.582031 265.820312 107.246094 264.738281 106.957031 263.636719 C 108.671875 262.355469 110.367188 261.042969 112.058594 259.71875 C 111.847656 260.042969 111.742188 260.4375 111.828125 260.90625 Z M 123.761719 274.917969 C 123.09375 275.273438 122.453125 275.613281 121.859375 275.914062 C 121.644531 276.023438 121.4375 276.136719 121.226562 276.246094 C 120.660156 275.304688 120.121094 274.351562 119.609375 273.386719 C 120.644531 272.421875 121.675781 271.460938 122.707031 270.5 C 122.964844 271.988281 123.34375 273.464844 123.761719 274.917969 Z M 129.09375 259.621094 C 129.105469 259.636719 129.109375 259.65625 129.117188 259.671875 C 128.621094 260.054688 128.128906 260.4375 127.632812 260.835938 C 124.265625 263.53125 120.910156 266.414062 117.738281 269.449219 C 117.054688 267.847656 116.457031 266.210938 115.953125 264.523438 C 115.984375 264.488281 116.019531 264.457031 116.054688 264.425781 C 120.261719 260.402344 124.824219 256.726562 129.503906 253.261719 C 129.996094 252.894531 130.496094 252.523438 131 252.148438 C 131.054688 253.933594 131.195312 255.730469 131.390625 257.527344 C 130.109375 257.144531 128.496094 258.0625 129.09375 259.621094 Z M 111.117188 298.753906 C 111.308594 298.285156 111.304688 297.730469 110.972656 297.15625 C 105.5 287.707031 97.828125 279.566406 90.113281 271.867188 C 90.832031 270.089844 91.332031 268.339844 91.222656 266.261719 C 91.164062 265.21875 91.136719 264.179688 91.109375 263.136719 C 100.070312 260.183594 108.03125 252.714844 115.410156 247.117188 C 121.488281 242.507812 127.992188 237.527344 134.992188 233.894531 C 134.9375 233.96875 134.878906 234.035156 134.828125 234.121094 C 133.371094 236.601562 132.40625 239.242188 131.804688 241.984375 C 128.351562 243.816406 125.105469 246.0625 121.921875 248.308594 C 116.539062 252.113281 111.5 256.382812 106.257812 260.371094 C 106.1875 259.960938 106.117188 259.550781 106.0625 259.136719 C 105.933594 258.148438 104.550781 258.101562 104.484375 259.136719 C 104.425781 260 104.425781 260.855469 104.464844 261.707031 C 103.238281 262.617188 102 263.511719 100.734375 264.371094 C 100.6875 262.871094 101.21875 261.542969 102.644531 260.59375 C 102.785156 260.5 102.667969 260.308594 102.519531 260.375 C 96.039062 263.339844 99.636719 269.996094 102.75 274.628906 C 102.558594 275.503906 102.65625 276.253906 103.15625 276.808594 C 103.652344 277.359375 104.160156 277.425781 104.640625 277.246094 C 106.875 280.148438 109.417969 282.839844 111.949219 285.457031 C 112.699219 286.230469 113.488281 287.144531 114.320312 288.054688 C 116.347656 292.640625 119.476562 297.277344 124.734375 297.476562 C 125.011719 297.488281 125.28125 297.472656 125.554688 297.464844 C 125.640625 297.570312 125.730469 297.667969 125.816406 297.777344 C 125.832031 297.800781 125.855469 297.8125 125.875 297.835938 C 121.015625 297.882812 115.867188 297.621094 111.117188 298.753906 Z M 161.84375 165.601562 C 164.082031 164.949219 166.34375 162.78125 168.058594 161.628906 C 168.980469 161.007812 169.898438 160.386719 170.816406 159.757812 C 170.921875 160.800781 171.832031 161.6875 172.769531 161.628906 C 168.09375 164.417969 163.25 166.957031 158.332031 169.300781 C 159.523438 168.085938 160.695312 166.851562 161.84375 165.601562 Z M 184.804688 114.011719 C 187.90625 112.1875 190.800781 110.019531 193.402344 107.484375 C 191.433594 109.675781 189.457031 111.867188 187.382812 113.960938 C 186.578125 114.777344 185.679688 115.539062 184.765625 116.292969 C 184.792969 115.535156 184.804688 114.777344 184.804688 114.011719 Z M 201.386719 77.359375 C 201.347656 77.378906 201.308594 77.390625 201.269531 77.414062 C 201.265625 77.300781 201.253906 77.191406 201.242188 77.078125 C 201.292969 77.171875 201.339844 77.269531 201.386719 77.359375 Z M 227.449219 52.859375 C 224.542969 49.960938 221.460938 47.238281 218.210938 44.753906 C 215.957031 43.03125 213.5625 41.246094 211.066406 39.582031 C 211.730469 39.429688 212.367188 39.113281 212.890625 38.609375 C 212.941406 38.566406 212.980469 38.515625 213.03125 38.460938 C 214.261719 39.332031 215.476562 40.234375 216.679688 41.179688 C 220.746094 44.355469 224.472656 47.832031 228.007812 51.492188 C 227.8125 51.945312 227.628906 52.398438 227.449219 52.859375 Z M 154.78125 34.15625 C 154.757812 34.164062 154.730469 34.175781 154.707031 34.183594 C 151.949219 28.546875 149.386719 22.460938 146.070312 17.070312 C 148.734375 16.558594 151.394531 16.179688 154.144531 16.039062 C 154.71875 16.007812 155.28125 16 155.835938 15.992188 C 155.847656 21.582031 156.304688 27.550781 157.617188 32.972656 C 156.671875 33.367188 155.726562 33.773438 154.78125 34.15625 Z M 143.910156 35.5625 C 144.28125 35.15625 144.4375 34.53125 144.132812 33.957031 C 143.234375 32.261719 141.898438 30.789062 140.785156 29.222656 C 139.207031 26.996094 137.691406 24.734375 136.03125 22.5625 C 135.441406 21.789062 134.832031 20.949219 134.085938 20.289062 C 136.949219 19.316406 139.84375 18.453125 142.800781 17.765625 C 142.90625 17.738281 143.007812 17.722656 143.113281 17.699219 C 145.34375 22.890625 147.445312 28.386719 150.1875 33.332031 C 148.003906 33.410156 145.890625 34.394531 143.910156 35.5625 Z M 138.351562 43.308594 C 139.320312 42.625 140.304688 41.960938 141.308594 41.335938 C 142.742188 40.4375 144.300781 39.769531 145.871094 39.128906 C 143.46875 40.648438 140.925781 42.011719 138.351562 43.308594 Z M 129.246094 46.8125 C 129.511719 46.246094 129.859375 45.703125 130.339844 45.183594 C 131.589844 43.832031 133.136719 42.761719 134.769531 41.839844 C 132.816406 43.398438 130.953125 45.0625 129.246094 46.8125 Z M 302.417969 151.988281 C 298.859375 117.664062 287.269531 83.585938 265.3125 56.589844 C 254.460938 43.25 240.460938 32.855469 225.097656 25.289062 C 217.269531 21.4375 208.988281 18.554688 200.523438 16.476562 C 192.820312 14.589844 184.136719 12.796875 176.015625 13.152344 C 171.714844 8.507812 166.554688 4.621094 161.300781 0.929688 C 159.976562 0 158.617188 1.527344 158.847656 2.816406 C 159.300781 5.394531 159.980469 7.925781 160.773438 10.433594 C 160.269531 10.148438 159.691406 10.003906 159.117188 9.996094 C 154.085938 8.605469 146.605469 10.753906 142.511719 11.785156 C 135.238281 13.613281 128.503906 17.652344 121.792969 20.871094 C 120.636719 21.421875 120.589844 23.066406 121.402344 23.90625 C 122.230469 24.761719 122.980469 25.667969 123.699219 26.59375 C 123.632812 26.675781 123.574219 26.761719 123.519531 26.847656 C 123.347656 26.679688 123.175781 26.507812 123.003906 26.335938 C 122.039062 25.378906 120.515625 25.589844 119.71875 26.488281 C 119.539062 26.414062 119.367188 26.335938 119.183594 26.289062 C 117.9375 25.957031 116.773438 27.117188 117.105469 28.363281 C 117.457031 29.664062 118.515625 30.804688 119.585938 31.847656 C 120.441406 36.667969 122.816406 41.601562 127.789062 42.679688 C 128.828125 42.902344 129.863281 41.886719 129.429688 40.878906 C 130.351562 40.878906 131.222656 40.273438 131.558594 39.398438 C 131.609375 39.429688 131.644531 39.480469 131.699219 39.515625 C 132.113281 39.792969 132.824219 39.625 133.039062 39.164062 C 134.242188 36.546875 132.753906 33.992188 131.570312 31.570312 C 130.113281 28.582031 128.195312 25.824219 126.039062 23.285156 C 128.082031 22.46875 130.132812 21.679688 132.203125 20.941406 C 132.425781 21.492188 132.707031 22.023438 132.949219 22.5625 C 133.714844 24.289062 134.957031 25.976562 135.984375 27.558594 C 137.691406 30.179688 139.5 34.175781 142.273438 35.808594 C 142.621094 36.011719 142.960938 36.03125 143.269531 35.945312 C 142.503906 36.417969 141.753906 36.90625 141.027344 37.375 C 139.039062 37.796875 136.980469 38.714844 135.355469 39.304688 C 132.074219 40.496094 128.941406 42.253906 126.390625 44.644531 C 123.6875 47.171875 124.859375 53.320312 125.03125 56.652344 C 125.074219 57.496094 125.191406 64.601562 125.113281 64.59375 C 124.132812 64.46875 123.550781 64.457031 122.648438 64.992188 C 121.464844 65.683594 120.878906 67.707031 120.195312 68.835938 C 119.050781 70.726562 117.617188 72.417969 116.128906 74.042969 C 113.234375 77.195312 109.789062 79.605469 106.230469 81.933594 C 99.066406 86.617188 91.03125 89.667969 83.058594 92.65625 C 79.992188 93.804688 81.277344 98.722656 84.425781 97.609375 C 93.234375 94.472656 101.933594 90.699219 109.726562 85.484375 C 113.535156 82.933594 117.015625 79.679688 119.960938 76.1875 C 121.878906 73.917969 125.523438 69.835938 125.402344 66.484375 C 125.421875 66.480469 125.441406 66.480469 125.460938 66.476562 C 126 66.410156 126.328125 66.105469 126.382812 65.558594 C 126.710938 62.179688 127.941406 58.894531 128.414062 55.511719 C 128.644531 53.847656 128.5 52.15625 128.53125 50.527344 C 128.976562 50.914062 129.613281 51.078125 130.28125 50.757812 C 137.25 47.40625 144.136719 43.335938 151.28125 40.324219 C 152.960938 40.234375 154.675781 39.925781 156.296875 39.65625 C 158.902344 39.234375 161.59375 38.910156 164.0625 37.949219 C 167.027344 36.796875 167.003906 33.160156 165.066406 31.753906 C 164.339844 26.363281 163.078125 21.058594 162.546875 15.617188 C 164.234375 20.257812 166.074219 24.863281 167.375 29.582031 C 167.730469 30.859375 169.8125 30.636719 169.730469 29.261719 C 169.261719 21.316406 165.226562 14.070312 163.078125 6.417969 C 166.097656 8.746094 169.027344 11.199219 171.6875 13.890625 C 171.382812 14.433594 171.613281 15.324219 172.296875 15.476562 C 172.660156 15.558594 173.027344 15.625 173.394531 15.703125 C 176.199219 18.808594 178.628906 22.234375 180.414062 26.148438 C 181.390625 28.296875 184.53125 26.433594 183.570312 24.304688 C 182.335938 21.5625 180.796875 19.066406 179.046875 16.753906 C 186.21875 17.90625 193.457031 18.597656 200.558594 20.492188 C 209.28125 22.824219 217.675781 26.246094 225.613281 30.539062 C 240.574219 38.636719 253.292969 50.894531 263.523438 64.34375 C 276.886719 81.914062 285.773438 102.464844 291.03125 123.917969 C 290.582031 123.050781 289.636719 122.429688 288.480469 122.746094 C 284.25 123.902344 279.972656 127.363281 277.042969 130.746094 C 276.234375 125.507812 275.167969 120.3125 273.839844 115.183594 C 274.167969 115.152344 274.507812 115.066406 274.855469 114.894531 C 276.308594 114.167969 277.628906 113.238281 278.945312 112.296875 C 280.28125 111.34375 281.710938 110.644531 283.074219 109.761719 C 284.1875 109.042969 284.785156 107.761719 284.421875 106.453125 C 284.039062 105.0625 282.289062 103.789062 280.8125 104.40625 C 277.695312 105.710938 275.367188 108.453125 272.449219 110.15625 C 271.1875 105.875 269.738281 101.648438 268.089844 97.492188 C 271.351562 97.066406 274.273438 95.605469 276.128906 92.625 C 278.238281 89.25 272.480469 86.070312 270.902344 89.570312 C 269.953125 91.679688 268.207031 92.378906 266.054688 92.589844 C 264.042969 88.011719 261.777344 83.570312 259.265625 79.269531 C 259.605469 79.21875 259.976562 79.171875 260.445312 79.082031 C 261.683594 78.851562 262.550781 77.515625 262.550781 76.320312 C 262.550781 74.714844 261.246094 73.515625 259.679688 73.457031 C 258.386719 73.40625 257.257812 73.769531 256.265625 74.382812 C 254.554688 71.722656 252.75 69.121094 250.828125 66.589844 C 249.890625 65.347656 248.921875 64.140625 247.933594 62.953125 C 248.03125 62.859375 248.128906 62.761719 248.230469 62.671875 C 248.285156 62.625 248.308594 62.597656 248.34375 62.566406 C 248.390625 62.535156 248.449219 62.496094 248.539062 62.433594 C 248.898438 62.1875 249.285156 61.988281 249.679688 61.800781 C 251.371094 60.996094 251.800781 58.617188 250.910156 57.105469 C 249.960938 55.488281 247.828125 54.933594 246.207031 55.871094 C 245.222656 56.441406 244.324219 57.164062 243.515625 57.980469 C 240.769531 55.050781 237.886719 52.265625 234.886719 49.589844 C 235.078125 49.449219 235.261719 49.308594 235.449219 49.167969 C 235.988281 48.808594 236.453125 48.386719 236.984375 47.886719 C 240.324219 44.742188 234.964844 39.476562 231.988281 42.898438 C 231.085938 43.929688 230.695312 44.769531 230.363281 45.691406 C 228.882812 44.460938 227.382812 43.242188 225.863281 42.042969 C 222.777344 39.621094 219.4375 37.148438 215.925781 34.824219 C 215.957031 34.78125 216.128906 34.5625 216.246094 34.410156 C 216.738281 33.808594 217.296875 33.273438 217.703125 32.59375 C 219.667969 29.292969 215.675781 25 212.304688 27.203125 C 210.960938 28.085938 210.105469 29.433594 209.277344 30.78125 C 204.242188 27.992188 198.941406 25.71875 193.53125 24.457031 C 193.636719 23.730469 193.433594 22.984375 192.875 22.425781 C 192.082031 21.636719 190.917969 21.542969 189.953125 22.050781 C 189.347656 22.371094 188.8125 23.003906 188.308594 23.46875 C 188.273438 23.5 188.25 23.535156 188.21875 23.566406 C 187.9375 23.539062 187.65625 23.496094 187.375 23.476562 C 186.976562 23.445312 186.804688 24.066406 187.171875 24.238281 C 187.34375 24.316406 187.519531 24.398438 187.695312 24.480469 C 187.441406 25.339844 187.660156 26.339844 188.308594 26.988281 C 189.238281 27.917969 190.910156 27.984375 191.832031 26.988281 C 191.949219 26.863281 192.074219 26.734375 192.203125 26.605469 C 197.265625 29.03125 202.179688 31.566406 206.925781 34.460938 C 206.578125 35.234375 206.480469 36.074219 206.667969 36.878906 C 204.023438 35.394531 201.292969 34.148438 198.503906 33.332031 C 196.984375 32.886719 196.195312 34.992188 197.457031 35.808594 C 203.160156 39.484375 209.195312 42.320312 214.664062 46.433594 C 220.480469 50.804688 225.722656 55.960938 230.472656 61.453125 C 240.203125 72.695312 247.4375 86.039062 252.761719 99.859375 C 263.015625 126.484375 266.15625 156.441406 262.117188 184.65625 C 261.75 187.234375 265.679688 188.355469 266.070312 185.746094 C 270.488281 156.265625 266.65625 125.570312 255.910156 97.800781 C 250.582031 84.03125 243.226562 71.097656 233.761719 59.742188 C 232.425781 58.144531 231.035156 56.589844 229.601562 55.070312 C 230.003906 54.96875 230.371094 54.734375 230.628906 54.347656 C 230.636719 54.332031 230.652344 54.316406 230.660156 54.300781 C 234.371094 58.351562 237.890625 62.589844 241.347656 66.917969 C 255.988281 85.246094 264.539062 107.683594 268.15625 130.699219 C 271.871094 154.328125 269.605469 178.179688 264.933594 201.472656 C 262.640625 212.910156 259.382812 224.171875 255.550781 235.179688 C 253.433594 241.257812 250.910156 247.152344 248.359375 253.042969 C 248.046875 253.101562 247.734375 253.164062 247.421875 253.222656 C 245.742188 253.527344 245.675781 255.855469 246.761719 256.734375 C 245.347656 260.003906 243.949219 263.28125 242.636719 266.597656 C 238.617188 276.738281 236.753906 287.007812 235.171875 297.707031 C 235.109375 297.6875 235.054688 297.664062 234.988281 297.644531 C 225.472656 295.5 215.382812 296.539062 205.675781 296.640625 C 194.808594 296.753906 183.941406 296.972656 173.078125 297.167969 C 164.453125 297.328125 155.832031 297.445312 147.210938 297.558594 C 147.234375 297.527344 147.257812 297.496094 147.28125 297.464844 C 148.222656 297.339844 149.117188 296.824219 149.703125 296.050781 C 151.855469 296.019531 153.441406 293.953125 152.878906 291.867188 C 151.5625 286.929688 149.824219 282.113281 148.601562 277.148438 C 148.34375 276.109375 147.730469 275.480469 146.992188 275.175781 C 147.726562 261.046875 150.363281 247.0625 156.789062 234.355469 C 157.8125 234.792969 159.152344 234.519531 159.78125 233.429688 C 161.144531 231.0625 162.914062 229.136719 164.84375 227.226562 C 167.042969 225.046875 163.617188 221.628906 161.453125 223.839844 C 159.914062 225.410156 158.492188 227.046875 157.152344 228.792969 C 156.550781 229.578125 155.765625 230.652344 155.511719 231.632812 C 155.796875 230.511719 155.328125 231.542969 155.183594 231.914062 C 152.957031 237.671875 151.109375 243.855469 148.460938 249.417969 C 146.488281 253.5625 145.980469 259.078125 145.421875 263.59375 C 145.261719 264.875 145.136719 266.167969 145.027344 267.453125 C 144.308594 266.875 143.316406 266.730469 142.382812 266.949219 C 142.363281 266.542969 142.347656 266.140625 142.34375 265.734375 C 143.292969 265.007812 143.089844 263.847656 142.359375 263.359375 C 142.464844 260.183594 142.820312 256.972656 142.917969 253.878906 C 143.464844 253.53125 144.003906 253.1875 144.558594 252.851562 C 145.0625 252.550781 144.726562 251.808594 144.171875 251.929688 C 143.757812 252.023438 143.367188 252.140625 142.960938 252.25 C 143.085938 247.09375 143.242188 240.789062 146.085938 236.542969 C 146.320312 236.191406 145.929688 235.632812 145.515625 235.796875 C 144.183594 236.332031 143.230469 237.464844 142.546875 238.921875 C 140.132812 239.367188 137.871094 239.65625 135.628906 240.34375 C 136.132812 238.757812 136.789062 237.222656 137.636719 235.757812 C 138.367188 234.484375 137.214844 233.308594 136.09375 233.339844 C 138.800781 232 141.582031 230.867188 144.441406 230.050781 C 145.074219 229.867188 144.804688 228.964844 144.171875 229.078125 C 133.523438 231.003906 124.878906 236.859375 116.246094 243.101562 C 107.949219 249.101562 99.875 254.792969 91.019531 259.839844 C 91.003906 259.160156 90.992188 258.480469 90.972656 257.800781 C 90.863281 253.453125 91.542969 249.257812 92.558594 245.035156 C 93.285156 242.03125 94.246094 238.96875 95.40625 235.964844 C 108.378906 232.882812 120.585938 226.304688 132.105469 219.875 C 138.648438 216.214844 145.117188 212.429688 151.722656 208.886719 C 158.214844 205.398438 165.003906 202.558594 171.589844 199.269531 C 172.355469 198.890625 171.804688 197.769531 171.03125 197.945312 C 157.511719 201.007812 145.007812 209.199219 132.964844 215.75 C 121.378906 222.054688 109.777344 227.417969 97.347656 231.421875 C 98.492188 229 99.773438 226.671875 101.191406 224.511719 C 101.589844 223.914062 102 223.324219 102.414062 222.734375 C 102.382812 223.785156 103.476562 224.832031 104.710938 224.171875 C 129.890625 210.761719 158.0625 201.78125 180.460938 183.667969 C 182.101562 182.34375 179.769531 180.03125 178.144531 181.355469 C 166.859375 190.53125 153.957031 197.234375 140.820312 203.339844 C 128.351562 209.128906 115.078125 214.035156 103.394531 221.359375 C 106.695312 216.824219 110.410156 212.628906 114.378906 208.648438 C 114.417969 208.667969 114.464844 208.6875 114.519531 208.691406 C 117.53125 209.101562 120.535156 207.210938 123.285156 206.109375 C 126.929688 204.644531 130.5625 203.167969 134.183594 201.652344 C 141.808594 198.476562 149.339844 195.085938 156.707031 191.347656 C 168.25 185.492188 179.242188 178.65625 188.679688 169.941406 C 187.988281 171.9375 187.296875 173.929688 186.554688 175.90625 C 184.257812 182.039062 180.410156 187.863281 180.113281 194.609375 C 180.007812 197.050781 183.660156 196.984375 183.867188 194.609375 C 184.417969 188.421875 188.59375 182.710938 190.828125 177.085938 C 192.46875 172.960938 193.824219 168.722656 195.277344 164.53125 C 195.550781 163.757812 195.875 162.960938 196.222656 162.144531 C 196.488281 161.835938 196.757812 161.539062 197.023438 161.226562 C 197.203125 161.011719 197.0625 160.75 196.855469 160.699219 C 198.167969 157.71875 199.527344 154.582031 199.375 151.59375 C 199.332031 150.738281 198.332031 149.960938 197.523438 150.53125 C 196.277344 151.410156 195.371094 152.574219 194.644531 153.871094 C 187.074219 160.167969 179.5 166.457031 171.351562 171.996094 C 161.929688 178.402344 152.207031 182.425781 141.40625 185.789062 C 140.589844 186.039062 140.699219 187.441406 141.617188 187.332031 C 152.074219 186.085938 162.390625 180.101562 171.09375 174.539062 C 178.9375 169.519531 186.277344 163.691406 193.109375 157.363281 C 192.71875 158.425781 192.367188 159.5 191.984375 160.519531 C 191.234375 162.53125 190.53125 164.558594 189.835938 166.589844 C 179.21875 175.320312 167.597656 182.792969 155.363281 189.050781 C 148.21875 192.707031 140.859375 195.941406 133.460938 199.027344 C 129.839844 200.535156 126.195312 201.996094 122.550781 203.449219 C 121.210938 203.984375 119.597656 204.4375 118.082031 205.046875 C 123.003906 200.410156 128.191406 196.039062 133.316406 191.714844 C 139.828125 186.226562 146.492188 180.644531 152.769531 174.742188 C 168.625 167.785156 184.019531 159.421875 196.453125 147.21875 C 197.761719 145.9375 195.753906 143.933594 194.449219 145.214844 C 188.28125 151.265625 181.34375 156.402344 173.980469 160.890625 C 175.96875 158.433594 178.292969 155.75 180.46875 152.902344 C 188.417969 146.988281 196.257812 140.84375 202.449219 133.039062 C 202.746094 132.667969 202.273438 132.160156 201.914062 132.507812 C 196.550781 137.6875 190.617188 142.375 184.554688 146.804688 C 185.453125 145.210938 186.214844 143.582031 186.765625 141.929688 C 187.371094 141.082031 187.996094 140.238281 188.636719 139.410156 C 189.9375 137.726562 187.824219 135.386719 186.386719 136.617188 C 185.785156 136.421875 185.09375 136.589844 184.640625 137.335938 C 183.503906 139.21875 182.578125 141.195312 181.609375 143.164062 C 179.203125 146.742188 176.914062 150.40625 174.453125 153.945312 C 172.324219 155.421875 170.183594 156.882812 168.035156 158.332031 C 173.085938 151.875 177.335938 144.925781 180.308594 137.269531 C 183.960938 134.210938 187.230469 130.476562 190.785156 127.273438 C 194.710938 123.738281 198.519531 120.078125 201.488281 115.679688 C 202.042969 114.863281 200.742188 114.140625 200.179688 114.917969 C 196.886719 119.46875 192.601562 123.101562 188.324219 126.703125 C 186.417969 128.3125 184.164062 129.945312 182.179688 131.777344 C 182.539062 130.539062 182.878906 129.289062 183.167969 128.015625 C 185.476562 125.726562 187.714844 123.347656 190.125 121.164062 C 193.332031 118.257812 196.316406 115.167969 198.960938 111.742188 C 199.617188 110.886719 198.183594 109.800781 197.472656 110.59375 C 194.375 114.089844 190.796875 117.078125 187.316406 120.183594 C 186.285156 121.101562 185.199219 122.027344 184.125 122.984375 C 184.207031 122.429688 184.28125 121.867188 184.351562 121.300781 C 186.003906 120.007812 187.507812 118.453125 188.964844 117.050781 C 191.851562 114.265625 194.453125 111.285156 196.621094 107.914062 C 197.371094 106.753906 195.886719 105.433594 194.828125 106.011719 C 195.144531 105.660156 195.453125 105.3125 195.75 104.957031 C 195.863281 105.140625 196 105.308594 196.183594 105.445312 C 196.5 105.679688 197.101562 105.675781 197.414062 105.445312 C 198.226562 104.851562 198.292969 103.710938 198.277344 102.769531 C 198.273438 102.464844 198.285156 102.15625 198.335938 101.851562 C 198.328125 101.890625 198.449219 101.453125 198.402344 101.554688 C 198.4375 101.496094 198.460938 101.433594 198.488281 101.371094 C 198.941406 101.160156 199.160156 100.597656 199.03125 100.15625 C 199.507812 99.320312 199.957031 98.46875 200.382812 97.601562 C 201.796875 108.3125 203.867188 118.996094 204.765625 129.714844 C 205.527344 138.761719 205.316406 147.851562 203.84375 156.8125 C 202.324219 166.023438 198.835938 174.710938 195.28125 183.296875 C 188.589844 199.449219 179.804688 214.65625 171.304688 229.898438 C 164.496094 242.109375 153.042969 253.691406 153.472656 268.550781 C 153.484375 268.878906 153.953125 268.871094 153.976562 268.550781 C 155.25 252.742188 167.671875 240.773438 174.675781 227.320312 C 178.738281 219.53125 183.488281 212.121094 187.445312 204.257812 C 191.3125 196.574219 194.8125 188.71875 197.929688 180.699219 C 204.429688 163.964844 207.765625 147.703125 206.792969 129.714844 C 206.136719 117.5 204.339844 105.207031 202.367188 93.027344 C 203.359375 90.449219 204.296875 87.320312 204.554688 84.296875 C 205.386719 86.390625 206.140625 88.546875 206.804688 90.792969 C 210.164062 102.191406 210.730469 114.242188 210.753906 126.050781 C 210.753906 127.148438 212.457031 127.148438 212.457031 126.050781 C 212.414062 105.523438 210.367188 84.066406 198.347656 67.203125 C 196.867188 64.144531 194.953125 61.265625 192.855469 58.714844 C 193.820312 58.660156 194.777344 58.578125 195.707031 58.414062 C 196.613281 58.257812 196.53125 57.09375 195.9375 56.660156 C 191.21875 53.238281 184.363281 54.03125 178.917969 54.765625 C 177.542969 54.949219 177.542969 57.339844 178.917969 57.527344 C 181.410156 57.867188 184.054688 58.277344 186.710938 58.535156 C 186.8125 58.726562 186.941406 58.914062 187.117188 59.097656 C 191.160156 63.183594 194.710938 67.550781 196.203125 73.195312 C 197.621094 78.554688 195.574219 83.75 195.675781 89.070312 C 195.1875 90.402344 194.664062 91.683594 194.035156 92.84375 C 191.617188 97.304688 188.105469 101.445312 184.035156 104.488281 C 175.777344 110.675781 165.125 113.101562 155.136719 114.773438 C 143.578125 116.707031 131.898438 118 120.285156 119.523438 C 115.121094 120.195312 109.695312 121.070312 105.390625 124.203125 C 103.890625 125.292969 103.773438 124.496094 102.03125 124.496094 C 100.632812 124.496094 99.09375 125.300781 97.734375 125.628906 C 96.804688 125.851562 93.929688 126.851562 93.175781 125.832031 C 92.363281 124.734375 92.421875 122.800781 92.410156 121.332031 C 92.453125 121.324219 92.5 121.316406 92.542969 121.304688 C 93.269531 121.9375 93.707031 121.578125 93.84375 121.039062 C 96.199219 120.582031 98.589844 120.257812 100.964844 119.953125 C 103.785156 119.59375 107.699219 120.253906 110.226562 118.910156 C 112.328125 117.792969 111.640625 114.820312 109.605469 114.148438 C 106.960938 113.277344 103.003906 115.28125 100.417969 115.925781 C 97.371094 116.691406 94.042969 117.335938 91.257812 118.832031 C 91.207031 118.859375 91.160156 118.894531 91.117188 118.925781 C 91.09375 118.914062 91.070312 118.914062 91.046875 118.90625 C 91.167969 118.210938 90.972656 117.476562 90.261719 116.882812 C 90.121094 116.765625 89.980469 116.652344 89.839844 116.535156 C 92.726562 116.527344 95.683594 116.140625 97.511719 114.261719 C 97.726562 114.039062 97.652344 113.589844 97.316406 113.527344 C 95.628906 113.191406 94.230469 113.457031 92.539062 113.738281 C 90.675781 114.046875 88.769531 114.121094 86.871094 114.164062 C 85.359375 112.992188 83.816406 111.867188 82.234375 110.804688 C 82.128906 107.355469 80.050781 104.492188 79.878906 100.929688 C 80.371094 100.726562 80.875 100.554688 81.398438 100.4375 C 82.628906 100.105469 82.699219 98.1875 81.398438 97.886719 C 80.152344 97.605469 78.894531 97.996094 77.757812 97.796875 C 76.53125 97.582031 75.21875 97.914062 74.574219 99.089844 C 72.035156 103.769531 71.222656 111.476562 76.367188 114.652344 C 77.273438 115.210938 78.714844 115.398438 79.78125 114.960938 C 82.246094 116.589844 84.527344 118.394531 86.648438 120.492188 C 87.230469 121.066406 87.890625 121.261719 88.523438 121.210938 C 88.394531 124.394531 88.402344 127.410156 90.738281 129.859375 C 93.058594 132.289062 99.019531 131.738281 102.03125 131.609375 C 103.636719 131.539062 105.015625 130.570312 105.46875 128.996094 C 106.765625 124.460938 117.753906 124.390625 121.503906 124.207031 C 127.160156 123.925781 132.835938 124.230469 138.496094 123.921875 C 148.957031 123.347656 159.4375 122.535156 169.644531 120.054688 C 173.757812 119.054688 177.78125 117.636719 181.5625 115.765625 C 181.429688 117.027344 181.269531 118.277344 181.082031 119.519531 C 180.585938 120.011719 180.113281 120.519531 179.6875 121.0625 C 179.09375 121.828125 179.425781 123.304688 180.386719 123.421875 C 180.058594 124.992188 179.671875 126.539062 179.25 128.074219 C 178.90625 128.535156 178.585938 129.007812 178.292969 129.496094 C 177.984375 130.011719 178.113281 130.511719 178.429688 130.835938 C 175.621094 139.6875 171.183594 147.945312 165.179688 155.496094 C 155.542969 167.601562 143.257812 177.351562 131.371094 187.125 C 119.621094 196.78125 107.667969 206.640625 98.320312 218.730469 C 93.703125 224.699219 89.429688 230.695312 86.539062 237.710938 C 83.074219 246.136719 81.976562 254.285156 81.75 263.339844 C 81.660156 266.960938 81.722656 269.472656 83.15625 272.839844 C 84.523438 276.0625 88.585938 277.933594 91.242188 280.03125 C 97.71875 285.167969 103.410156 292.046875 107.648438 299.09375 C 108.261719 300.113281 109.339844 300.195312 110.152344 299.777344 C 110.222656 299.902344 110.335938 300.003906 110.496094 300.046875 C 115.035156 301.257812 119.898438 300.957031 124.5625 301.078125 C 129.769531 301.214844 134.984375 301.214844 140.195312 301.285156 C 151.15625 301.429688 162.117188 301.570312 173.078125 301.773438 C 183.375 301.957031 193.671875 302.136719 203.96875 302.277344 C 213.988281 302.414062 224.539062 303.503906 234.382812 301.414062 C 231.695312 303.933594 227.097656 304.667969 223.765625 305.390625 C 216.109375 307.050781 208.226562 307.699219 200.421875 308.1875 C 192.40625 308.691406 184.371094 308.898438 176.34375 308.988281 C 171.089844 309.046875 165.691406 308.628906 160.457031 309.046875 C 157.207031 309.304688 157.207031 313.828125 160.457031 314.089844 C 166.226562 314.546875 172.246094 313.980469 178.019531 313.789062 C 187.101562 313.488281 196.179688 312.984375 205.226562 312.117188 C 212.453125 311.425781 219.757812 310.617188 226.816406 308.847656 C 216.386719 311.804688 205.875 314.46875 195.484375 317.554688 C 194.84375 317.742188 194.300781 318.027344 193.839844 318.382812 C 187.714844 319.003906 181.597656 319.710938 175.472656 320.328125 C 174.855469 318.738281 173.445312 317.507812 171.230469 317.5625 C 168.363281 317.566406 165.5 317.585938 162.644531 317.691406 C 155.171875 317.640625 147.730469 316.917969 140.886719 313.59375 C 138.617188 312.601562 136.519531 313.65625 135.566406 315.28125 C 135.503906 315.226562 135.429688 315.175781 135.371094 315.121094 C 135.367188 315.121094 135.367188 315.125 135.363281 315.125 C 135.1875 314.992188 135.027344 314.851562 134.84375 314.71875 C 133.371094 313.640625 131.746094 314.667969 131.191406 316.078125 C 130.101562 315.117188 129.027344 314.125 127.957031 313.113281 C 126.542969 311.765625 124.578125 313.5625 125.421875 315.066406 C 125.421875 315.066406 125.417969 315.070312 125.410156 315.074219 C 126.179688 316.429688 127.058594 317.683594 128.027344 318.859375 C 129.207031 321.074219 130.066406 323.550781 130.75 325.96875 C 129.613281 325.101562 128.558594 323.882812 127.53125 322.882812 C 124.285156 319.722656 123.039062 315.476562 122.355469 311.144531 C 129.882812 312.203125 137.574219 312.035156 144.972656 314.027344 C 148.542969 314.988281 149.421875 309.183594 145.652344 309.015625 C 137.703125 308.65625 129.851562 307.984375 121.988281 306.84375 C 121.5 306.773438 121.066406 306.851562 120.695312 307.027344 C 120.542969 306.320312 120.074219 305.707031 119.28125 305.558594 C 118 305.324219 116.71875 305.085938 115.429688 304.878906 C 114.621094 304.75 113.871094 304.894531 113.269531 305.246094 C 113.277344 305.234375 113.289062 305.226562 113.292969 305.214844 C 113.722656 304.199219 113.675781 303.234375 113.644531 302.160156 C 113.621094 301.265625 112.917969 300.519531 112.003906 300.519531 C 111.089844 300.519531 110.386719 301.265625 110.363281 302.160156 C 110.335938 303.234375 110.289062 304.199219 110.714844 305.214844 C 110.996094 305.878906 111.890625 306.078125 112.566406 305.84375 C 112.210938 306.28125 111.980469 306.847656 111.941406 307.535156 C 111.699219 311.738281 111.199219 315.921875 110.996094 320.128906 C 110.824219 323.75 110.378906 327.367188 111.832031 330.730469 C 105.03125 335.039062 98.875 340.175781 93.144531 345.8125 C 91.703125 345.792969 90.269531 345.804688 88.851562 345.878906 C 92.980469 342.082031 96.976562 338.15625 101 334.183594 C 101.296875 333.894531 101.496094 333.585938 101.664062 333.273438 C 102.023438 333.265625 102.382812 333.261719 102.742188 333.253906 C 103.585938 333.234375 104.429688 333.222656 105.277344 333.203125 C 107.546875 333.160156 109.4375 331.347656 109.4375 329.042969 C 109.4375 326.746094 107.546875 324.929688 105.277344 324.886719 C 104.535156 324.871094 103.796875 324.859375 103.0625 324.84375 C 102.636719 324.835938 102.214844 324.828125 101.792969 324.824219 C 101.601562 324.816406 101.414062 324.8125 101.21875 324.808594 C 100.433594 324.542969 99.589844 324.488281 98.699219 324.730469 C 96.777344 325.261719 95.414062 327.054688 95.414062 329.042969 C 95.414062 329.328125 95.445312 329.605469 95.5 329.878906 C 88.519531 336.941406 81.660156 343.925781 75.515625 351.75 C 74.039062 353.628906 75.777344 355.789062 77.675781 355.183594 C 77.503906 355.730469 77.527344 356.34375 77.742188 356.867188 C 77.515625 356.90625 77.289062 356.953125 77.085938 357.019531 C 76.414062 355.492188 74.394531 354.644531 72.890625 356.148438 C 71.628906 357.414062 71.054688 359.15625 71.097656 360.921875 C 71.144531 362.929688 72.140625 365.722656 74.261719 366.304688 C 75.46875 366.636719 76.480469 366.304688 77.179688 365.632812 C 77.382812 365.691406 77.597656 365.722656 77.816406 365.761719 C 76.417969 367.816406 77.136719 370.972656 79.980469 371.890625 C 83.621094 373.0625 87.722656 372.8125 91.523438 372.921875 C 95.59375 373.039062 99.675781 372.996094 103.746094 373.035156 C 111.894531 373.109375 120.042969 373.167969 128.195312 373.171875 C 145.070312 373.179688 161.949219 373.183594 178.828125 373.191406 C 195.128906 373.199219 211.421875 373.207031 227.71875 373.210938 C 235.867188 373.214844 244.019531 373.21875 252.164062 373.222656 C 259.886719 373.226562 269.542969 374.984375 276.234375 370.371094 C 277.949219 369.1875 277.964844 366.953125 276.292969 365.742188 C 279.546875 362.085938 279.539062 355.5625 278.328125 351.074219 C 277.917969 349.558594 276.917969 348.527344 275.710938 347.980469 C 275.746094 347.574219 275.664062 347.160156 275.398438 346.769531 C 270.167969 339.144531 263.710938 333.039062 257.105469 326.617188 C 256.117188 325.652344 254.96875 325.453125 253.953125 325.734375 C 253.980469 325.691406 254.011719 325.652344 254.039062 325.609375 C 255.03125 324.386719 255.03125 322.949219 254.039062 321.726562 C 252.527344 319.453125 249.164062 319.800781 246.597656 319.664062 C 245.257812 319.597656 244.050781 320.332031 243.320312 321.398438 C 243.09375 320.996094 242.785156 320.636719 242.421875 320.34375 C 243.621094 313.902344 244.21875 307.488281 244.140625 300.8125 C 244.164062 298.804688 243.039062 297.535156 241.605469 296.996094 C 241.0625 294.515625 240.964844 291.921875 241.195312 289.269531 C 242.277344 289.304688 243.382812 288.867188 244.15625 287.742188 C 246.75 283.972656 255.097656 284.203125 259 284.09375 C 265.199219 283.917969 271.378906 285.199219 277.554688 284.878906 C 279.042969 284.804688 279.566406 283.042969 278.480469 282.136719 C 279.851562 282.425781 281.347656 281.863281 281.761719 280.09375 C 287.632812 254.917969 298.261719 230.980469 301.679688 205.238281 C 304.019531 187.578125 304.253906 169.710938 302.417969 151.988281 Z M 250.636719 217.566406 C 250.769531 217.566406 250.769531 217.363281 250.636719 217.363281 C 250.507812 217.363281 250.507812 217.566406 250.636719 217.566406 Z M 89.914062 100.0625 C 88.96875 99.539062 88.027344 99.449219 86.984375 99.671875 C 86.410156 99.796875 85.792969 100.160156 85.296875 100.636719 C 84.300781 101.078125 83.621094 102.097656 83.621094 103.199219 C 83.621094 104.371094 84.472656 105.671875 85.683594 105.90625 C 86.0625 105.976562 86.449219 106.035156 86.835938 106.046875 C 87.261719 106.066406 88.640625 105.894531 87.253906 106.007812 C 87.214844 105.996094 87.179688 105.988281 87.144531 105.980469 C 87.714844 106.023438 88.277344 105.910156 88.890625 105.617188 C 88.992188 105.597656 89.09375 105.582031 89.195312 105.554688 C 89.742188 105.40625 90.347656 105.042969 90.730469 104.570312 C 90.828125 104.460938 90.921875 104.34375 91.003906 104.203125 C 91.417969 103.496094 91.152344 103.824219 91.296875 103.457031 C 91.78125 102.242188 90.992188 100.65625 89.914062 100.0625 Z M 149.488281 62.253906 C 148.515625 61.742188 147.441406 61.839844 146.375 62.015625 C 145.894531 61.539062 145.210938 61.214844 144.308594 61.210938 C 140.058594 61.179688 135.757812 61.238281 131.5625 61.933594 C 129.296875 62.3125 129.296875 66.113281 131.5625 66.492188 C 132.699219 66.679688 133.835938 66.816406 134.984375 66.925781 C 135.539062 69.53125 136.792969 72.398438 139.90625 72.4375 C 142.363281 72.46875 145.175781 70.847656 147.277344 69.675781 C 148.679688 68.890625 149.066406 67.601562 148.789062 66.425781 C 149.027344 66.367188 149.265625 66.289062 149.488281 66.171875 C 150.972656 65.394531 150.972656 63.03125 149.488281 62.253906 Z M 128.476562 79.546875 C 129.652344 79.019531 130.835938 78.492188 132.007812 77.941406 C 133.410156 77.28125 134.976562 76.25 136.519531 75.996094 C 138.152344 75.734375 136.855469 72.875 135.472656 74.207031 C 134.511719 75.136719 132.960938 75.683594 131.792969 76.300781 C 130.464844 77 129.148438 77.726562 127.835938 78.457031 C 127.109375 78.855469 127.75 79.867188 128.476562 79.546875 Z M 129.5 113.101562 C 128.410156 113.199219 128.398438 114.71875 129.5 114.804688 C 136.980469 115.378906 145.160156 114.300781 152.515625 112.871094 C 160.101562 111.398438 167.554688 108.878906 174.554688 105.628906 C 176.046875 104.9375 174.746094 102.824219 173.277344 103.457031 C 166.300781 106.445312 159.328125 109.003906 151.90625 110.664062 C 148.179688 111.5 144.21875 112.335938 140.417969 112.722656 C 136.796875 113.09375 133.136719 112.78125 129.5 113.101562 Z M 125.460938 261.726562 C 125.332031 261.726562 125.332031 261.929688 125.460938 261.929688 C 125.589844 261.929688 125.589844 261.726562 125.460938 261.726562 Z M 175.265625 207.953125 C 175.132812 207.953125 175.132812 208.15625 175.265625 208.15625 C 175.394531 208.15625 175.394531 207.953125 175.265625 207.953125 Z M 149.289062 217.066406 C 133.335938 229.566406 114.847656 239.617188 95.449219 245.582031 C 93.585938 246.15625 94.394531 249.097656 96.257812 248.5 C 115.8125 242.210938 134.378906 230.972656 150.089844 217.867188 C 150.660156 217.390625 149.855469 216.621094 149.289062 217.066406 Z M 167.988281 218.265625 C 169.96875 216.488281 171.84375 214.773438 172.980469 212.328125 C 173.1875 211.882812 172.773438 211.472656 172.332031 211.679688 C 169.882812 212.816406 168.167969 214.6875 166.382812 216.660156 C 165.402344 217.75 166.902344 219.246094 167.988281 218.265625 Z M 201.363281 122.886719 C 199.480469 125.351562 197.296875 127.617188 195.148438 129.847656 C 193.179688 131.890625 190.550781 133.792969 189.085938 136.230469 C 188.503906 137.210938 189.664062 138.367188 190.640625 137.785156 C 193.292969 136.199219 195.4375 133.226562 197.5 130.957031 C 199.527344 128.722656 201.417969 126.410156 203 123.839844 C 203.65625 122.773438 202.078125 121.945312 201.363281 122.886719 Z M 235.394531 264.246094 C 236.414062 254.109375 239.027344 244.828125 246.359375 237.394531 C 249.507812 234.203125 244.5 229.222656 241.453125 232.492188 C 234.828125 239.601562 233.035156 248.890625 231.785156 258.261719 C 231.101562 263.382812 230.765625 268.535156 230.375 273.6875 C 230.097656 277.335938 229.296875 280.960938 228.851562 284.585938 C 227.847656 284.625 226.867188 285 226.15625 285.773438 C 225.921875 286.035156 225.679688 286.300781 225.421875 286.542969 C 224.796875 285.984375 224.085938 285.640625 223.320312 285.453125 C 223.878906 284.984375 224.351562 284.472656 224.699219 283.910156 C 225.074219 283.308594 224.730469 282.402344 224.019531 282.242188 C 221.324219 281.652344 219.175781 283.328125 216.789062 284.503906 C 215.980469 284.902344 215.179688 285.273438 214.378906 285.609375 C 210.296875 285.867188 206.25 286.335938 202.183594 286.855469 C 200.191406 287.113281 199.546875 289.851562 201.6875 290.503906 C 206.132812 291.855469 210.296875 291.25 214.578125 289.621094 C 214.722656 289.566406 214.878906 289.507812 215.03125 289.453125 C 215.820312 289.433594 216.613281 289.421875 217.402344 289.410156 C 219.621094 289.378906 222.074219 289.855469 224.066406 289.042969 C 223.929688 289.960938 224.089844 290.910156 224.558594 291.714844 C 225.652344 293.574219 228.292969 294.394531 230.171875 293.183594 C 230.851562 292.75 231.453125 292.195312 232.046875 291.65625 C 233.4375 290.390625 233.570312 288.25 232.699219 286.675781 C 233.59375 283.976562 233.773438 280.96875 234.089844 278.191406 C 234.617188 273.554688 234.925781 268.894531 235.394531 264.246094 Z M 217.878906 282.882812 C 222.238281 277.828125 226.898438 270.117188 226.230469 263.175781 C 226.117188 261.960938 224.175781 261.472656 223.9375 262.863281 C 223.367188 266.214844 222.757812 269.261719 221.351562 272.394531 C 219.910156 275.613281 217.765625 278.390625 215.898438 281.355469 C 215.144531 282.558594 216.9375 283.976562 217.878906 282.882812 Z M 156.421875 292.421875 C 158.511719 292.421875 159.519531 289.859375 158.09375 288.386719 C 158.625 288.9375 158.023438 287.871094 157.980469 287.761719 C 158.066406 287.96875 158.035156 286.863281 158.03125 286.699219 C 158.007812 285.578125 157.988281 284.460938 157.96875 283.335938 C 157.925781 281.347656 154.914062 281.347656 154.875 283.335938 C 154.855469 284.332031 154.839844 285.324219 154.816406 286.320312 C 154.808594 286.828125 154.800781 287.339844 154.789062 287.847656 C 154.792969 287.636719 154.234375 288.917969 154.75 288.386719 C 153.328125 289.859375 154.332031 292.421875 156.421875 292.421875 Z M 204.210938 63.042969 C 202.695312 62.171875 201.320312 64.523438 202.839844 65.382812 C 218.539062 74.261719 226.84375 94.109375 228.753906 111.261719 C 228.804688 111.703125 229.414062 111.714844 229.449219 111.261719 C 230.183594 102.304688 226.792969 93.222656 222.980469 85.273438 C 218.730469 76.421875 212.878906 68.019531 204.210938 63.042969"/>
    </g>
  </g>
</svg>
