<svg xmlns="http://www.w3.org/2000/svg" width="375" viewBox="0 0 375 375" height="375" version="1.0">
  <path fill="#FFF"
        d="M 226.761719 251.476562 C 218.363281 259.875 200.363281 262.875 187.539062 262.875 C 174.675781 262.875 156.710938 259.875 148.3125 251.476562 C 146.324219 249.488281 143.136719 249.488281 141.152344 251.476562 C 139.164062 253.464844 139.164062 256.652344 141.152344 258.636719 C 154.464844 271.949219 180.039062 273 187.539062 273 C 195.035156 273 220.574219 271.949219 233.925781 258.636719 C 235.875 256.648438 235.875 253.460938 233.925781 251.476562 C 231.9375 249.488281 228.75 249.488281 226.761719 251.476562 Z M 226.761719 251.476562"/>
  <path fill="#FFF"
        d="M 164.0625 207.039062 C 164.0625 196.273438 155.289062 187.5 144.523438 187.5 C 133.765625 187.5 124.988281 196.273438 124.988281 207.039062 C 124.988281 217.796875 133.765625 226.574219 144.523438 226.574219 C 155.289062 226.574219 164.0625 217.800781 164.0625 207.039062 Z M 164.0625 207.039062"/>
  <path fill="#FFF"
        d="M 187.5 0 C 83.960938 0 0 83.960938 0 187.5 C 0 291.039062 83.960938 375 187.5 375 C 291.039062 375 375 291.039062 375 187.5 C 375 83.960938 291.039062 0 187.5 0 Z M 296.289062 212.511719 C 296.699219 215.210938 296.925781 217.949219 296.925781 220.726562 C 296.925781 262.800781 247.949219 296.886719 187.539062 296.886719 C 127.125 296.886719 78.148438 262.800781 78.148438 220.726562 C 78.148438 217.914062 78.375 215.136719 78.785156 212.4375 C 69.261719 208.164062 62.625 198.601562 62.625 187.5 C 62.625 172.425781 74.851562 160.164062 89.960938 160.164062 C 97.3125 160.164062 103.949219 163.050781 108.863281 167.777344 C 127.835938 154.089844 154.089844 145.347656 183.300781 144.597656 C 183.300781 144.222656 196.949219 79.199219 196.949219 79.199219 C 197.214844 77.925781 197.960938 76.835938 199.050781 76.125 C 200.136719 75.414062 201.449219 75.1875 202.726562 75.449219 L 248.175781 85.125 C 251.363281 78.675781 257.925781 74.210938 265.613281 74.210938 C 276.410156 74.210938 285.148438 82.949219 285.148438 93.75 C 285.148438 104.550781 276.410156 113.289062 265.613281 113.289062 C 255.148438 113.289062 246.675781 105.035156 246.1875 94.6875 L 205.5 86.023438 L 193.050781 144.640625 C 221.738281 145.648438 247.5 154.347656 266.175781 167.851562 C 271.085938 163.089844 277.761719 160.164062 285.148438 160.164062 C 300.265625 160.164062 312.488281 172.386719 312.488281 187.5 C 312.488281 198.675781 305.773438 208.238281 296.289062 212.511719 Z M 296.289062 212.511719"/>
  <path fill="#FFF"
        d="M 230.476562 187.5 C 219.710938 187.5 210.9375 196.273438 210.9375 207.039062 C 210.9375 217.796875 219.710938 226.574219 230.476562 226.574219 C 241.234375 226.574219 250.011719 217.796875 250.011719 207.039062 C 250.011719 196.273438 241.238281 187.5 230.476562 187.5 Z M 230.476562 187.5"/>
</svg>
