<svg xmlns="http://www.w3.org/2000/svg" width="375" viewBox="0 0 375 375" height="375" version="1.0">
  <defs>
    <clipPath id="a">
      <path d="M 87 252 L 283.867188 252 L 283.867188 298.546875 L 87 298.546875 Z M 87 252"/>
    </clipPath>
    <clipPath id="b">
      <path d="M 160 53.824219 L 215 53.824219 L 215 68 L 160 68 Z M 160 53.824219"/>
    </clipPath>
  </defs>
  <path fill="#FFF" d="M-37.5 -37.5H412.5V412.5H-37.5z"/>
  <path fill="#FFF" d="M-37.5 -37.5H412.5V412.5H-37.5z"/>
  <path fill="#FFF" d="M-37.5 -37.5H412.5V412.5H-37.5z"/>
  <path
    d="M 188.4375 45.007812 C 109.226562 45.007812 45.007812 109.226562 45.007812 188.4375 C 45.007812 267.652344 109.226562 331.867188 188.4375 331.867188 C 267.652344 331.867188 331.867188 267.652344 331.867188 188.4375 C 331.867188 109.226562 267.652344 45.007812 188.4375 45.007812 Z M 188.4375 45.007812"/>
  <g clip-path="url(#a)">
    <path fill="#FFF"
          d="M 283.648438 297.367188 C 237.519531 288.75 193.09375 280.449219 146.96875 271.828125 C 146.378906 270.21875 146.015625 267.523438 146.390625 265.527344 C 189.734375 273.453125 229.574219 278.351562 233.449219 279.167969 C 250.433594 282.757812 267.859375 290 283.648438 297.367188 Z M 217.734375 282.007812 C 216.730469 281.191406 215.699219 280.414062 214.691406 279.601562 C 212.734375 278.027344 212.488281 277.761719 209.375 277.304688 C 194.070312 275.078125 172.9375 271.863281 149.441406 267.882812 C 148.285156 267.6875 147.515625 267.421875 147.605469 268.929688 C 147.679688 270.164062 148.316406 270.191406 149.324219 270.410156 C 174.175781 275.769531 196.722656 280.132812 216.695312 283.777344 C 219.785156 284.339844 219.421875 283.378906 217.734375 282.007812 Z M 221.445312 280.847656 C 223.023438 281.964844 224.601562 283.082031 226.179688 284.195312 C 228.171875 285.601562 229.292969 286.042969 231.640625 286.457031 C 235.503906 287.140625 234.40625 286.378906 231.847656 284.40625 C 230.488281 283.355469 229.128906 282.304688 227.769531 281.257812 C 226.484375 280.265625 224.722656 279.507812 223.15625 279.28125 C 222.824219 279.230469 222.488281 279.183594 222.140625 279.136719 C 218.492188 278.621094 218.820312 278.996094 221.445312 280.847656 Z M 112.648438 266.253906 C 112.191406 267.070312 113.027344 268.617188 114.070312 268.015625 C 115.671875 267.09375 114.992188 262.058594 112.648438 266.253906 Z M 106.6875 268.394531 C 107.859375 267.691406 108.863281 267.929688 108.921875 270.351562 C 108.921875 270.351562 108.011719 268.894531 106.6875 268.394531 Z M 117.148438 275.585938 C 117.148438 275.585938 116.660156 272.269531 114.542969 270.089844 C 113.644531 269.164062 111.957031 268.648438 111.167969 269.90625 C 111.167969 269.90625 112.734375 270.3125 113.460938 271.125 C 114.183594 271.9375 115.210938 274.3125 117.148438 275.585938 Z M 124.390625 277.546875 C 121.714844 278.015625 121.878906 275.566406 120.300781 273.125 C 119.847656 272.421875 118.375 270.40625 119.097656 269.808594 C 120.253906 268.523438 123.230469 269.953125 123.65625 271.460938 C 124.554688 274.65625 124.390625 277.546875 124.390625 277.546875 Z M 123.988281 263.359375 C 124.519531 260.378906 124.847656 259.265625 124.964844 258.246094 C 123.289062 259.730469 122.492188 263.074219 122.09375 263.78125 C 121.53125 264.777344 119.9375 266.867188 121.632812 268.199219 C 122.570312 268.933594 123.453125 267.863281 123.746094 266.679688 C 123.882812 266.117188 123.839844 264.214844 123.988281 263.359375 Z M 135.84375 274.101562 C 133.996094 271.828125 137.859375 267.214844 138.5625 263.988281 C 138.53125 262.15625 137.273438 259.925781 137.273438 259.925781 C 135.152344 261.539062 130.953125 266.808594 130.222656 268.148438 C 128.523438 271.261719 129.710938 270.082031 130.066406 272.1875 C 129.234375 272.179688 127.625 272.898438 127.625 272.898438 C 129.757812 274.234375 130.914062 275.976562 129.890625 279.019531 C 131.609375 279.980469 133.609375 279.257812 133.609375 279.257812 C 135.207031 277.402344 135.84375 274.101562 135.84375 274.101562 Z M 104.636719 259.351562 C 104.636719 259.351562 95.683594 253.328125 92.773438 252.964844 C 89.863281 252.597656 87.511719 258.121094 87.167969 259.503906 C 89.945312 255.703125 91.472656 254.957031 93.75 255.480469 C 95.800781 255.953125 99.476562 257.40625 101.421875 258.304688 C 103.144531 259.09375 104.410156 259.332031 104.636719 259.351562 Z M 275.390625 297.839844 C 260.402344 298.558594 244.71875 298.488281 230.269531 296.109375 C 226.367188 295.464844 187.464844 285.574219 144.199219 277.230469 C 144.640625 276.097656 145.070312 275.253906 145.714844 274.40625 C 145.433594 275.128906 145.226562 275.773438 145.117188 276.550781 C 173.570312 282.613281 201.558594 288.226562 230.011719 294.289062 C 246.375 296.941406 258.117188 297.097656 275.390625 297.839844 Z M 147.289062 258.128906 C 149.246094 258.488281 148.648438 263.832031 148.570312 264.917969 C 148.59375 262.261719 148.4375 259.847656 147.550781 258.878906 C 147.375 258.683594 147.089844 258.625 146.847656 258.792969 C 146.308594 259.164062 145.691406 260.132812 145.515625 260.449219 C 144.074219 263.070312 143.101562 266.8125 142.542969 269.554688 C 142.105469 271.726562 141.789062 273.921875 141.667969 275.824219 C 141.492188 278.535156 141.390625 280.777344 141.804688 282.847656 C 142.007812 283.867188 142.261719 284.179688 142.714844 284.140625 C 143.597656 284.058594 144.402344 283.023438 144.859375 282.3125 C 145.4375 281.421875 145.75 280.410156 146.046875 279.675781 C 144.921875 284.722656 142.789062 284.730469 142.316406 284.640625 C 141.414062 284.46875 140.515625 284.300781 139.613281 284.132812 C 137.886719 281.195312 139.148438 272.53125 139.769531 269.035156 C 140.386719 265.566406 142.328125 259.09375 144.582031 257.621094 C 145.484375 257.789062 146.386719 257.960938 147.289062 258.128906 Z M 262.699219 290.300781 C 255.582031 287.472656 248.320312 284.921875 240.953125 282.925781 C 239.109375 282.425781 237.476562 282.359375 239.933594 284.117188 C 241.585938 285.296875 243.234375 286.476562 244.886719 287.65625 C 246.238281 288.625 248.621094 289.390625 250.214844 289.660156 C 255.019531 290.464844 259.101562 291.132812 262.257812 291.640625 C 265.46875 292.15625 264.597656 291.054688 262.699219 290.300781"
          fill-rule="evenodd"/>
  </g>
  <path fill="#FFF"
        d="M 115.949219 188.332031 C 115.949219 188.332031 116.628906 184.191406 118.65625 181.257812 C 119.644531 180.578125 120.679688 180.175781 121.609375 180.03125 C 122.261719 180.027344 123.121094 180.296875 124.503906 180.816406 C 127.179688 184.203125 131.453125 190.40625 133.082031 193.796875 C 134.199219 196.128906 134.960938 198.578125 135.46875 200.679688 C 135.84375 202.222656 136.246094 203.421875 136.582031 205.367188 C 136.390625 209.070312 135.570312 213.679688 134.875 216.066406 C 134.539062 216.035156 133.0625 215.140625 132.484375 211.175781 C 131.910156 207.207031 131.8125 204.785156 129.972656 202.382812 C 128.136719 199.984375 117.761719 192.203125 115.949219 188.332031"
        fill-rule="evenodd"/>
  <path fill="#FFF"
        d="M 115.589844 196.40625 C 119.226562 195.726562 125.84375 205.339844 127.476562 208.4375 C 128.734375 210.832031 130.644531 216.421875 131.070312 219.460938 C 131.40625 221.855469 132.65625 231.550781 134.503906 238.296875 C 134.835938 239.492188 133.886719 239.714844 131.722656 235.417969 C 129.339844 230.683594 126.539062 224.203125 125.066406 220.269531 C 120.246094 207.386719 114.609375 200.003906 115.589844 196.40625"
        fill-rule="evenodd"/>
  <path fill="#FFF"
        d="M 110.679688 192.882812 C 110.679688 192.882812 108.953125 189.84375 108.746094 187.503906 C 108.542969 185.167969 109.246094 182.195312 108.585938 182.519531 C 107.925781 182.839844 105.65625 185.101562 105.265625 191.53125 C 107.289062 198.960938 110.277344 201.964844 113.464844 208.328125 C 115.722656 212.832031 117.398438 217.605469 119.355469 222.25 C 120.675781 225.394531 122.890625 229.757812 125.292969 233.191406 C 126.953125 235.554688 128.972656 237.6875 127.09375 232.878906 C 125.320312 228.34375 122.691406 221.671875 121.949219 220.0625 C 120.777344 217.515625 119.269531 214.289062 117.953125 211.601562 C 115.34375 206.277344 112.894531 203.1875 111.175781 199.109375 C 109.457031 195.03125 109.625 194.277344 110.679688 192.882812"
        fill-rule="evenodd"/>
  <path fill="#FFF"
        d="M 115.65625 222.238281 C 115.65625 222.238281 112.207031 216.242188 109.660156 211.164062 C 108.199219 208.257812 107.148438 205.332031 105.75 202.449219 C 105.867188 204.554688 106.589844 206.808594 107.464844 209.28125 C 108.332031 211.726562 112.828125 221.476562 115.65625 222.238281"
        fill-rule="evenodd"/>
  <path fill="#FFF"
        d="M 102.617188 189.148438 C 102.046875 189.058594 101.359375 188.320312 100.65625 186.117188 C 99.949219 183.914062 97.839844 184.449219 98.308594 183.582031 C 98.816406 182.632812 100.269531 180.78125 101.117188 180.480469 C 101.96875 180.175781 102.601562 180.625 102.328125 184.363281 C 102.261719 185.039062 102.074219 186.347656 102.617188 189.148438"
        fill-rule="evenodd"/>
  <path fill="#FFF"
        d="M 185.332031 131.292969 C 185.332031 131.292969 187.578125 132.488281 191.289062 136.214844 C 195.820312 140.769531 201.09375 148.023438 202.183594 157.78125 C 202.183594 157.78125 200.949219 161.261719 197.914062 164.734375 C 197.914062 164.734375 199.875 169.171875 199.699219 175.339844 C 199.699219 175.339844 196.125 179.835938 193.664062 181.503906 C 193.664062 181.503906 191.378906 181.824219 189.1875 181.511719 C 189.1875 181.511719 191.582031 183.101562 192.511719 183.84375 C 192.511719 183.84375 193.453125 187.410156 193.210938 189.84375 C 193.210938 189.84375 191.46875 192.4375 189.398438 193.84375 C 189.398438 193.84375 187.417969 191.683594 185.644531 190.664062 C 185.644531 190.664062 184.160156 190.773438 182.699219 191.335938 C 182.699219 191.335938 179.601562 188.707031 178.613281 186.824219 C 178.613281 186.824219 180.910156 182.957031 184.800781 180.886719 C 184.800781 180.886719 187.171875 181.21875 188.230469 181.285156 C 188.230469 181.285156 185.089844 179.746094 184.457031 178.804688 C 183.820312 177.867188 181.878906 175.378906 178.214844 172.75 C 178.214844 172.75 179.371094 171.875 180.414062 172.023438 C 180.414062 172.023438 180.328125 165.464844 176.027344 163.222656 C 176.027344 163.222656 174.105469 162.683594 172.75 162.703125 C 172.75 162.703125 169.617188 159.957031 168.96875 156.898438 C 168.96875 156.898438 173.898438 155.878906 177.21875 157.929688 C 180.539062 159.980469 183.195312 161.917969 184.660156 162.339844 C 184.660156 162.339844 184.964844 161.78125 185.320312 161.539062 C 185.320312 161.539062 188.578125 163.210938 189.59375 164.507812 C 189.59375 164.507812 192.300781 164.355469 195.390625 162.78125 C 195.390625 162.78125 193.261719 162.425781 190.5 163.019531 C 190.5 163.019531 187.636719 159.761719 185.589844 158.6875 C 185.589844 158.6875 184.425781 158.011719 182.34375 154.507812 C 182.34375 154.507812 183.746094 153.371094 182.835938 151.671875 C 181.921875 149.972656 179.890625 147.945312 177.59375 143.5 C 175.300781 139.050781 176.179688 136.234375 177.082031 134.773438 C 177.464844 134.578125 179.707031 134.742188 183.023438 136.332031 C 181.578125 134.140625 179.800781 133.300781 178.429688 132.714844 C 179 132.101562 179.460938 131.691406 179.929688 131.402344 C 180.976562 130.765625 183.226562 130.804688 185.332031 131.292969"
        fill-rule="evenodd"/>
  <path fill="#FFF"
        d="M 191.15625 199.90625 C 190.988281 198.886719 189.761719 195.746094 188.8125 194.828125 C 187.992188 194.035156 185.769531 192.875 183.550781 192.910156 C 180.839844 192.949219 178.300781 194.714844 178.300781 194.714844 C 178.300781 194.714844 178.628906 196.3125 178.648438 197.21875 C 178.648438 197.21875 177.75 199.554688 176.828125 200.390625 C 176.828125 200.390625 181.144531 202.097656 181.785156 203.605469 C 181.785156 203.605469 183.804688 203.628906 184.921875 202.660156 C 184.921875 202.660156 186.628906 203.160156 187.980469 204.464844 C 187.980469 204.464844 190.265625 202.042969 191.15625 199.90625"
        fill-rule="evenodd"/>
  <path fill="#FFF"
        d="M 190.460938 211.457031 C 190.460938 211.457031 189.242188 207.273438 185.160156 204.792969 C 185.160156 204.792969 183.351562 205.117188 181.742188 204.695312 C 181.742188 204.695312 179.808594 205.957031 179.46875 207.128906 C 179.46875 207.128906 180.550781 211.457031 184.359375 215.347656 C 188.171875 219.242188 188.1875 220.035156 188.1875 220.035156 C 188.1875 220.035156 190.097656 215.386719 190.460938 211.457031"
        fill-rule="evenodd"/>
  <path fill="#FFF"
        d="M 172.574219 168.417969 C 172.574219 168.417969 169.503906 168.277344 167.777344 167.605469 C 167.777344 167.605469 164.167969 164.707031 163.230469 162.554688 C 163.230469 162.554688 164.164062 160.648438 165.632812 160.03125 C 165.632812 160.03125 168.777344 163.289062 171.667969 164.074219 C 171.667969 164.074219 171.371094 166.496094 172.574219 168.417969"
        fill-rule="evenodd"/>
  <path fill="#FFF"
        d="M 177.953125 174.914062 C 177.953125 174.914062 176.972656 171.539062 174.890625 170.207031 C 174.890625 170.207031 170.453125 168.980469 167.277344 168.820312 C 167.277344 168.820312 167.480469 171.585938 168.316406 172.769531 C 166.277344 172.191406 164.984375 167.699219 162.964844 166.773438 C 162.964844 166.773438 160.328125 166.742188 158.71875 167.925781 C 158.71875 167.925781 160.476562 172.378906 163.167969 174.199219 C 163.167969 174.199219 167.328125 174.523438 168.601562 173.613281 C 168.601562 173.613281 170.140625 174.25 172.671875 174.851562 C 175.203125 175.453125 177.953125 174.914062 177.953125 174.914062"
        fill-rule="evenodd"/>
  <path fill="#FFF"
        d="M 171.53125 177.492188 C 171.53125 177.492188 169.476562 179.378906 168.144531 182.195312 C 166.8125 185.007812 166.925781 187.058594 166.925781 187.058594 C 166.925781 187.058594 168.179688 189.585938 169.425781 190.136719 C 169.425781 190.136719 172.71875 188.996094 173.71875 188.035156 C 173.71875 188.035156 171.375 181.210938 171.53125 177.492188"
        fill-rule="evenodd"/>
  <path fill="#FFF"
        d="M 190.539062 114.078125 C 191.550781 113.808594 192.496094 113.511719 192.839844 113.558594 C 193.132812 114.027344 193.402344 114.238281 193.9375 114.078125 C 193.433594 112.394531 192.34375 111.394531 191.878906 110.53125 C 191.535156 111.558594 191.09375 112.769531 190.539062 114.078125 Z M 189.867188 116.855469 C 190.988281 115.683594 192.957031 115.539062 194.785156 116.078125 C 194.921875 115.882812 194.957031 115.449219 194.601562 114.980469 C 194.152344 115.117188 193.738281 115.285156 193.324219 115.058594 C 192.90625 114.832031 192.464844 114.605469 191.792969 114.605469 C 191.550781 114.605469 191.1875 114.679688 190.734375 114.789062 C 189.976562 115.433594 189.875 116.128906 189.867188 116.855469 Z M 188.765625 124.003906 C 190.664062 123.5 190.425781 121.96875 194.046875 122.113281 C 194.046875 122.113281 193.316406 121.078125 193.507812 119.605469 C 192.757812 118.390625 191.511719 118.53125 190.242188 118.875 C 189.910156 120.949219 189.230469 122.085938 188.765625 124.003906"
        fill-rule="evenodd"/>
  <path fill="#FFF"
        d="M 193.644531 99.894531 C 192.632812 98.171875 192.457031 95.019531 192.773438 93.035156 C 193.472656 92.609375 194.210938 92.078125 195.097656 91.390625 C 197.660156 89.414062 199.238281 87.789062 200.359375 86.847656 C 201.367188 85.996094 202.671875 86.042969 203.25 86.191406 C 202.222656 88.417969 201.183594 91.851562 201.183594 91.851562 C 201.183594 91.851562 200.808594 91.222656 200.039062 91.304688 C 199.273438 91.390625 198.441406 92.464844 196.726562 94.882812 C 195.015625 97.304688 196.109375 99.003906 196.867188 100.078125 C 197.625 101.152344 197.339844 102.636719 197.339844 102.636719 C 196.804688 101.3125 195.265625 100.460938 193.644531 99.894531 Z M 203.605469 85.46875 C 202.636719 85.382812 200.910156 85.390625 198.875 87.449219 C 194.828125 91.546875 190.304688 94.136719 183.988281 94.460938 C 183.988281 94.460938 185.527344 94.933594 188.386719 94.507812 C 188.515625 94.492188 188.636719 94.472656 188.753906 94.453125 C 190.492188 95.941406 190.085938 97.222656 189.515625 97.503906 C 188.707031 97.898438 188.308594 98.085938 188.011719 98.628906 C 187.285156 98.519531 186.921875 98.488281 186.921875 98.488281 C 184.660156 99.664062 184.101562 101.285156 184.101562 101.285156 C 185.492188 102.789062 187.257812 104.148438 187.257812 104.148438 C 187.320312 108.371094 186.507812 109.101562 185.730469 110.128906 C 184.957031 111.15625 182.425781 111.558594 180.03125 112.222656 C 177.640625 112.886719 177.140625 116.390625 177.140625 116.390625 C 177.140625 116.390625 176.503906 115.679688 174.824219 113.589844 C 173.140625 111.5 170.507812 106.761719 170.316406 106.199219 C 170.125 105.632812 171.898438 105.253906 171.898438 105.253906 C 174.648438 104.496094 177.910156 102.921875 177.910156 102.921875 C 170.621094 105.179688 168.582031 104.863281 168.582031 104.863281 C 168.582031 104.863281 169.316406 106.992188 176.433594 116.515625 C 183.550781 126.042969 187.511719 128.808594 187.511719 128.808594 C 187.625 117.726562 192.128906 106.011719 192.128906 106.011719 C 187.613281 104.820312 184.851562 101.277344 184.851562 101.277344 C 185.425781 99.804688 187.226562 98.894531 187.226562 98.894531 C 190.109375 99.300781 194.417969 100.523438 195.675781 101.382812 C 196.9375 102.242188 197.796875 104.167969 197.089844 106.050781 C 196.378906 107.9375 194.582031 108.800781 194.582031 108.800781 C 196.578125 111.664062 197.902344 113.269531 197.902344 113.269531 C 198.796875 102.578125 200.421875 97.035156 201.136719 94.199219 C 201.847656 91.363281 203.191406 88.023438 203.53125 86.730469 C 203.875 85.4375 203.605469 85.46875 203.605469 85.46875"
        fill-rule="evenodd"/>
  <path fill="#FFF"
        d="M 184.878906 76.621094 C 184.878906 76.621094 189.910156 77.703125 192.382812 78.277344 L 194.734375 82.332031 L 196.015625 80.082031 L 192.699219 77.726562 C 192.699219 77.726562 187.1875 76.804688 184.878906 76.621094"
        fill-rule="evenodd"/>
  <path fill="#FFF"
        d="M 187.933594 93.160156 C 190.449219 92.023438 194 89.683594 196.675781 85.6875 C 196.675781 85.6875 195 81.589844 187.808594 80.003906 C 180.617188 78.417969 175.382812 79.488281 172.058594 81.886719 C 168.734375 84.285156 174.175781 84.792969 181.214844 85.917969 C 188.253906 87.046875 190.488281 88.46875 187.933594 93.160156"
        fill-rule="evenodd"/>
  <path fill="#FFF"
        d="M 140.71875 181.328125 C 139.179688 182.097656 132.558594 181.710938 131.3125 181.039062 C 130.0625 180.367188 127.953125 169.511719 128.046875 166.050781 C 128.144531 162.535156 138.480469 157 141.378906 156.480469 C 144.398438 156.605469 147.03125 156.789062 150.125 156.421875 C 149.53125 162.164062 144.050781 179.65625 140.71875 181.328125"
        fill-rule="evenodd"/>
  <path fill="#FFF"
        d="M 127.46875 131.605469 C 128.472656 136.214844 132.316406 141.109375 136.503906 142.730469 C 144.144531 144.035156 152.742188 140.113281 155.589844 131.910156 C 156.949219 127.996094 146.152344 125.789062 142.90625 125.871094 C 135.296875 126.066406 127 129.449219 127.46875 131.605469"
        fill-rule="evenodd"/>
  <path fill="#FFF"
        d="M 148.671875 144.714844 C 153.988281 142.328125 158.8125 138.59375 160.980469 134.734375 C 161.746094 133.371094 163.148438 133.457031 163.792969 134.683594 C 164.820312 136.617188 165.574219 138.875 164.777344 140.722656 C 163.542969 143.59375 155.96875 146.0625 148.671875 144.714844"
        fill-rule="evenodd"/>
  <path fill="#FFF"
        d="M 122.949219 167.097656 C 122.949219 167.097656 123.644531 169.59375 124.699219 171.179688 C 124.652344 172.882812 124.675781 174.734375 124.195312 176.464844 C 123.523438 176.222656 121.414062 175.121094 120.839844 173.292969 C 120.550781 170.460938 121.894531 168.25 122.949219 167.097656"
        fill-rule="evenodd"/>
  <path fill="#FFF"
        d="M 117.886719 169.570312 C 117.886719 169.570312 118.605469 164.71875 121.820312 162.796875 C 123.5 161.792969 125.777344 159.789062 127.726562 157.894531 C 127.972656 154.214844 126.148438 151.246094 123.269531 149.246094 C 121.128906 154.792969 118.082031 157.59375 116.6875 161.789062 C 116.589844 163.085938 116.398438 166.113281 117.886719 169.570312"
        fill-rule="evenodd"/>
  <path fill="#FFF"
        d="M 110.820312 166.589844 C 110.820312 166.589844 107.347656 160.140625 107.8125 155.152344 C 108.222656 150.730469 110.507812 145.183594 111.359375 143.265625 C 107.761719 146.636719 106.289062 148.832031 106.175781 149.011719 C 103.378906 153.40625 102.367188 154.328125 103.316406 160.730469 C 103.316406 160.730469 103.585938 158.585938 104.582031 158.460938 C 105.578125 158.339844 108.621094 165.003906 110.820312 166.589844"
        fill-rule="evenodd"/>
  <path fill="#ED1C24"
        d="M 188.007812 100.609375 C 188.007812 100.609375 188.882812 102.433594 190.128906 103.015625 C 191.371094 103.601562 192.261719 102.875 192.398438 102.628906 C 192.398438 102.628906 189.769531 100.839844 188.007812 100.609375"
        fill-rule="evenodd"/>
  <path fill="#ED1C24"
        d="M 195.804688 79.015625 C 200.589844 70.449219 203.734375 67.574219 213.59375 66.140625 C 213.359375 65.972656 213.046875 65.761719 212.6875 65.535156 C 211.050781 65.496094 208.796875 65.847656 208.796875 65.847656 C 209.976562 65.382812 211.285156 65.214844 212.058594 65.152344 C 211.722656 64.949219 211.371094 64.746094 211.027344 64.550781 C 207.464844 64.828125 203.226562 66.359375 203.226562 66.359375 C 205.660156 64.753906 208.578125 64.207031 210.082031 64.023438 C 209.710938 63.820312 209.375 63.644531 209.109375 63.515625 C 199.640625 64.488281 195.332031 72.167969 193.375 77.203125 L 194.882812 78.324219 C 195.472656 76.917969 197.394531 72.613281 200.097656 70.601562 C 200.097656 70.601562 196.683594 75.328125 195.160156 78.535156 L 195.804688 79.015625"
        fill-rule="evenodd"/>
  <g clip-path="url(#b)">
    <path fill="#ED1C24"
          d="M 214.039062 65.632812 C 213.5 65.324219 212.5625 64.816406 211.648438 64.320312 L 210.707031 63.339844 L 210.96875 63.949219 C 210.410156 63.648438 209.902344 63.367188 209.558594 63.167969 C 209.429688 63.027344 209.296875 62.886719 209.164062 62.75 L 209.898438 62.523438 L 208.566406 62.164062 C 208.433594 62.039062 208.300781 61.917969 208.164062 61.800781 L 208.960938 61.75 L 207.984375 61.640625 C 207.027344 60.8125 205.984375 60.074219 204.867188 59.421875 L 205.257812 58.941406 L 204.226562 59.058594 C 204.054688 58.964844 203.882812 58.871094 203.707031 58.78125 L 204.128906 58.53125 L 203.417969 58.636719 C 201.988281 57.925781 200.464844 57.34375 198.886719 56.882812 L 199.097656 56.632812 L 198.574219 56.792969 C 198.183594 56.683594 197.789062 56.582031 197.390625 56.488281 C 195.898438 56.136719 194.375 55.875 192.832031 55.707031 L 193.136719 55.242188 L 192.425781 55.664062 C 191.476562 55.570312 190.523438 55.511719 189.566406 55.488281 L 189.984375 54.777344 L 188.578125 55.472656 C 187.890625 55.472656 187.199219 55.488281 186.511719 55.523438 L 186.496094 55.078125 L 185.878906 55.558594 C 182.949219 55.753906 180.035156 56.261719 177.222656 57.078125 C 177.449219 56.722656 177.648438 56.335938 177.648438 56.335938 L 176.351562 57.339844 C 170.261719 59.261719 164.695312 62.644531 160.574219 67.390625 C 162.449219 64.425781 165.796875 60.824219 171.40625 58.070312 L 170.996094 58.945312 L 171.902344 57.832031 C 174.875 56.433594 178.460938 55.273438 182.773438 54.5625 L 182.5625 55.273438 L 183.960938 54.382812 C 184.933594 54.242188 185.941406 54.128906 186.984375 54.035156 C 187.210938 54.015625 187.433594 54 187.652344 53.984375 L 187.351562 54.324219 L 187.96875 53.964844 C 190.386719 53.828125 192.695312 53.964844 194.871094 54.308594 L 194.679688 54.644531 L 195.117188 54.347656 C 195.613281 54.429688 196.105469 54.523438 196.59375 54.625 L 196.378906 54.96875 L 196.84375 54.679688 C 197.429688 54.808594 198.003906 54.953125 198.566406 55.109375 L 197.441406 55.578125 L 199.53125 55.394531 C 200.226562 55.613281 200.898438 55.847656 201.554688 56.101562 L 201.292969 56.421875 L 201.921875 56.246094 C 203.609375 56.917969 205.152344 57.695312 206.535156 58.523438 L 206.121094 58.714844 L 206.71875 58.636719 C 207.441406 59.074219 208.117188 59.523438 208.746094 59.980469 L 208.421875 60.109375 L 209.070312 60.222656 C 209.953125 60.882812 210.734375 61.554688 211.410156 62.210938 L 210.765625 62.347656 L 211.742188 62.539062 C 212.144531 62.949219 212.507812 63.355469 212.820312 63.742188 L 212.429688 63.816406 L 213.152344 64.171875 C 213.539062 64.695312 213.835938 65.191406 214.039062 65.632812"
          fill-rule="evenodd"/>
  </g>
  <path fill="#ED1C24"
        d="M 136.601562 105.601562 C 145.789062 105.464844 162.058594 114.378906 165.195312 121.335938 C 161.046875 117.199219 153.160156 111.402344 145.632812 111.191406 C 154.296875 114.597656 167.328125 122.164062 171.070312 130.929688 C 156.769531 117.082031 148.394531 113.800781 131.289062 110.207031 C 135.824219 107.949219 134.039062 107.125 136.601562 105.601562"
        fill-rule="evenodd"/>
  <path fill="#ED1C24"
        d="M 155.140625 122.015625 C 147.820312 122.027344 144.757812 115.964844 135.066406 114.847656 C 127.230469 113.945312 118.671875 115.507812 111.324219 119.277344 C 111.140625 117.910156 112.464844 114.757812 116.097656 114.175781 C 117.449219 112.746094 118.273438 111.925781 119.332031 111.597656 C 125.449219 111.292969 134.007812 112.640625 141.566406 115.097656 C 147.058594 116.882812 152.410156 118.585938 155.140625 122.015625"
        fill-rule="evenodd"/>
  <path fill="#ED1C24"
        d="M 102.382812 145.441406 C 101.46875 141.550781 102.03125 136.390625 103.992188 134.292969 C 107.046875 131.023438 113.136719 125.773438 119.089844 123.550781 C 109.949219 123.386719 107.289062 129.703125 102.738281 133.742188 C 102.84375 132.09375 103.585938 128.632812 104.273438 127.539062 C 105.289062 125.929688 106.886719 124.921875 108.519531 123.867188 C 115.589844 119.289062 120.160156 118.613281 127.519531 118.363281 C 134.410156 118.132812 142.5 120.039062 144.476562 121.507812 C 123.734375 123 112.605469 131.140625 102.382812 145.441406"
        fill-rule="evenodd"/>
  <path fill="#FFF"
        d="M 204.402344 148.445312 C 231.753906 163.5 250.292969 192.613281 250.292969 226.0625 C 250.292969 239.207031 247.429688 251.683594 242.292969 262.898438 C 247.667969 245.339844 250.496094 226.90625 245.671875 206.550781 C 239.871094 182.074219 224.421875 161.402344 204.402344 148.445312"
        fill-rule="evenodd"/>
  <path fill="#FFF"
        d="M 206.605469 181.386719 C 219.144531 193.566406 226.9375 210.609375 226.9375 229.480469 C 226.9375 238.59375 225.117188 247.277344 221.820312 255.199219 C 229.085938 230.8125 226.285156 203.355469 206.605469 181.386719"
        fill-rule="evenodd"/>
  <path fill="#171512"
        d="M 188.621094 567.167969 C -19.496094 567.167969 -189.367188 397.300781 -189.367188 188.621094 C -189.367188 -19.496094 -19.496094 -189.367188 188.621094 -189.367188 C 397.300781 -189.367188 566.605469 -19.496094 566.605469 188.621094 C 567.167969 397.300781 397.300781 567.167969 188.621094 567.167969 Z M 188.621094 18.75 C 95.25 18.75 18.75 95.25 18.75 188.621094 C 18.75 281.992188 95.25 358.488281 188.621094 358.488281 C 281.992188 358.488281 358.488281 281.992188 358.488281 188.621094 C 358.488281 95.25 282.554688 18.75 188.621094 18.75 Z M 188.621094 18.75"/>
</svg>
